<svg width="1600" height="944" viewBox="0 0 1600 944" fill="none" xmlns="http://www.w3.org/2000/svg">
<rect width="1600" height="944" fill="#FFF0E3"/>
<g opacity="0.3">
<path fill-rule="evenodd" clip-rule="evenodd" d="M1169.94 438.6C1169.31 439.099 1168.76 439.651 1168.28 440.323C1167.94 440.809 1167.46 441.226 1166.91 441.575C1166.31 441.958 1165.85 442.582 1165.23 442.982C1164.84 443.229 1164.58 443.831 1163.98 443.365C1163.71 443.517 1163.44 443.669 1163.1 443.861C1162.89 443.608 1162.69 443.364 1162.49 443.115C1162.45 443.062 1162.42 442.931 1162.41 442.933C1161.73 443.126 1161.36 442.319 1160.68 442.426C1160.32 442.484 1159.76 442.083 1159.8 441.782C1159.88 441.173 1159.48 440.911 1159.13 440.554C1159 439.796 1159.2 439.096 1159.54 438.402C1159.88 437.717 1160.1 436.97 1160.47 436.303C1161.21 434.949 1162.01 433.629 1162.8 432.3C1163.62 430.929 1164.49 429.598 1165.41 428.296C1166.26 427.106 1167.07 425.895 1167.91 424.703C1168.42 423.977 1168.92 423.242 1169.42 422.507C1169.45 422.475 1169.41 422.403 1169.37 422.232C1169.11 422.44 1168.92 422.721 1168.68 422.758C1168.37 422.809 1168.11 422.795 1168.08 423.182C1167.55 423.005 1167.47 423.833 1166.95 423.689C1166.81 424.014 1166.49 424.233 1166.22 424.319C1165.9 424.422 1165.63 424.42 1165.52 424.813C1165.49 424.924 1165.19 425.07 1165.07 425.027C1164.58 424.842 1164.59 425.483 1164.26 425.49C1163.86 425.498 1163.64 425.669 1163.61 426.068C1163.1 426.168 1162.8 426.615 1162.38 426.863C1162.01 427.076 1161.6 427.316 1161.4 427.659C1161.28 427.879 1161.18 427.958 1160.98 428.025C1160.33 428.245 1159.9 428.799 1159.31 429.133C1158.72 429.469 1158.23 429.978 1157.69 430.404C1157.01 430.94 1156.33 431.472 1155.64 432.001C1155.23 432.318 1154.78 432.161 1154.42 431.965C1154.15 431.816 1153.98 431.562 1153.63 431.803C1153.59 431.835 1153.36 431.605 1153.14 431.442C1153.34 431.301 1153.52 431.178 1153.7 431.055C1153.67 431.005 1153.64 430.955 1153.61 430.905C1153.44 430.97 1153.26 431.034 1153.06 431.107C1153.05 431.042 1152.98 430.924 1153.01 430.843C1153.08 430.648 1153.16 430.435 1153.3 430.29C1154.09 429.48 1154.85 428.646 1155.7 427.898C1157.12 426.64 1158.57 425.409 1160.05 424.226C1161.06 423.417 1162.1 422.63 1163.13 421.846C1164.06 421.141 1165.04 420.467 1165.98 419.785C1167.2 418.91 1168.44 418.081 1169.7 417.272C1170.5 416.758 1171.32 416.277 1172.13 415.782C1172.67 415.455 1173.27 415.576 1173.84 415.553C1174.25 415.771 1174.46 416.182 1175.02 416.288C1175.66 416.409 1176.83 418.127 1176.93 418.834C1177 419.358 1176.71 419.858 1176.55 420.362C1176.27 421.244 1175.88 422.061 1175.27 422.77C1175.21 422.847 1175.12 422.978 1175.15 423.049C1175.36 423.633 1174.66 423.835 1174.63 424.31C1174.03 424.658 1173.76 425.279 1173.37 425.799C1173.3 425.888 1173.14 425.96 1173.14 426.039C1173.15 427.081 1172.31 427.665 1171.85 428.445C1171.7 428.689 1171.5 428.902 1171.38 429.156C1171.3 429.331 1171.32 429.552 1171.29 429.752C1171.46 429.772 1171.56 429.816 1171.6 429.784C1172.37 429.108 1173.11 428.375 1173.92 427.751C1174.98 426.939 1175.91 425.964 1177.05 425.246C1177.6 424.902 1178.01 424.36 1178.56 423.966C1179.56 423.239 1180.41 422.305 1181.43 421.61C1183.18 420.417 1184.65 418.847 1186.52 417.815C1187 417.042 1187.91 416.759 1188.5 416.102C1188.66 415.925 1188.92 415.836 1189.12 415.694C1189.41 415.488 1189.7 415.276 1189.98 415.056C1191.12 414.17 1192.26 413.277 1193.4 412.394C1193.88 412.022 1194.39 411.682 1194.86 411.301C1196.21 410.226 1197.63 409.258 1199.02 408.249C1199.74 407.723 1200.37 407.08 1201.22 406.745C1201.82 405.876 1202.79 405.473 1203.58 404.855C1204.55 404.109 1205.54 403.399 1206.52 402.679C1207.79 401.749 1209.06 400.823 1210.34 399.9C1211.15 399.315 1211.96 398.736 1212.78 398.16C1213.77 397.463 1214.78 396.8 1215.76 396.082C1217.25 394.99 1218.81 393.993 1220.34 392.964C1222.25 391.679 1224.17 390.392 1226.09 389.124C1227.15 388.426 1228.23 387.758 1229.31 387.091C1230.6 386.296 1231.88 385.49 1233.2 384.737C1234.14 384.195 1235.12 383.708 1236.01 383.075C1236.23 382.921 1236.65 383.052 1237.11 383.052C1236.99 383.24 1236.94 383.382 1236.84 383.469C1236.53 383.733 1236.21 383.976 1235.84 384.272C1236.65 384.647 1237.17 383.553 1237.84 383.956C1237.63 384.164 1237.41 384.389 1237.18 384.613C1237.22 384.68 1237.26 384.747 1237.31 384.814C1237.55 384.744 1237.78 384.675 1238.1 384.583C1238.16 384.999 1238.21 385.405 1238.28 385.964C1238 386.189 1237.63 386.682 1237.17 386.795C1236.61 386.933 1236.44 387.621 1235.8 387.564C1235.63 387.549 1235.74 388.13 1235.33 387.99C1234.88 387.838 1235.14 388.557 1234.74 388.444C1234.37 388.339 1234.35 388.832 1234.26 388.829C1233.68 388.81 1233.52 389.378 1233.11 389.576C1232.66 389.788 1232.24 390.066 1231.86 390.372C1231.51 390.644 1231.18 390.874 1230.73 390.942C1230.57 390.966 1230.32 391.128 1230.31 391.242C1230.28 391.626 1230.05 391.568 1229.79 391.628C1229.61 391.672 1229.5 391.983 1229.31 392.04C1229.09 392.107 1228.85 392.046 1228.91 392.397C1228.14 392.44 1227.95 393.514 1227.09 393.424C1227.01 393.415 1226.88 393.504 1226.83 393.585C1226.29 394.524 1225.28 394.879 1224.47 395.483C1223.29 396.363 1222.11 397.246 1220.93 398.117C1219.98 398.816 1219.03 399.522 1218.06 400.185C1217.54 400.537 1217.16 401.168 1216.4 401.103C1216.35 401.098 1216.26 401.176 1216.24 401.235C1215.82 402.404 1214.48 402.351 1213.76 403.127C1213.64 403.257 1213.44 403.318 1213.34 403.459C1212.49 404.715 1211.08 405.292 1210 406.278C1209.21 407.001 1208.28 407.577 1207.43 408.235C1206.37 409.05 1205.33 409.885 1204.27 410.704C1204.17 410.786 1204.02 410.82 1203.89 410.866C1202.82 411.245 1202.07 412.101 1201.15 412.713C1200.95 412.848 1200.76 413.075 1200.68 413.3C1200.5 413.814 1200.02 414.071 1199.63 414.153C1199.22 414.24 1198.99 414.448 1198.71 414.684C1198.17 415.148 1197.53 415.509 1197.21 416.19C1196.23 416.801 1195.38 417.585 1194.49 418.306C1193.76 418.9 1192.9 419.36 1192.32 420.159C1191.93 420.683 1191.31 420.956 1190.71 421.175C1190.47 421.267 1190.23 421.32 1190.07 421.528C1189.9 421.753 1189.8 422.071 1189.58 422.211C1189.33 422.364 1189.2 422.556 1189.03 422.761C1188.54 423.339 1187.99 423.897 1187.14 423.917C1187.08 423.919 1187 423.937 1186.94 423.977C1186.57 424.264 1186.17 424.526 1185.85 424.861C1185.47 425.249 1184.95 425.537 1184.79 426.115C1184.78 426.178 1184.7 426.227 1184.64 426.275C1184.17 426.676 1183.7 427.082 1183.21 427.471C1182.73 427.861 1182.37 428.359 1181.82 428.708C1181.31 429.027 1180.84 429.44 1180.34 429.79C1180.04 429.974 1179.58 430.092 1179.47 430.355C1179.13 431.153 1178.09 431.175 1177.8 431.981C1177.03 432.179 1176.68 432.957 1176.02 433.314C1175.84 433.413 1175.58 433.479 1175.49 433.637C1175.03 434.487 1174 434.753 1173.52 435.584C1172.85 435.735 1172.53 436.273 1172.1 436.742C1171.79 437.094 1171.29 437.287 1170.88 437.55C1170.86 438.161 1170.21 438.209 1169.94 438.6Z" fill="#726C65"/>
<path fill-rule="evenodd" clip-rule="evenodd" d="M1242.47 396.126C1242.83 396.046 1243.19 395.966 1243.72 395.849C1243.52 396.08 1243.45 396.158 1243.36 396.261C1243.49 396.307 1243.62 396.35 1243.75 396.394C1243.85 396.752 1243.98 397.174 1243.56 397.364C1243.35 397.461 1243.02 397.294 1242.71 397.369C1242.85 397.437 1242.99 397.505 1243.14 397.581C1242.68 398.143 1242.06 398.235 1241.38 398.136C1241.35 398.39 1241.33 398.568 1241.31 398.819C1240.82 398.4 1240.44 398.919 1239.9 398.878C1240.02 399.113 1240.09 399.264 1240.17 399.414C1240 399.529 1239.8 399.699 1239.58 399.789C1239.26 399.918 1239.03 400.48 1238.57 400.033C1238.55 400.012 1238.46 400.037 1238.42 400.068C1238.33 400.138 1238.27 400.257 1238.17 400.298C1237.82 400.446 1237.4 400.495 1237.12 400.725C1236.87 400.929 1236.81 401.343 1236.61 401.626C1236.49 401.79 1236.28 401.907 1236.09 401.992C1235.89 402.084 1235.13 402.458 1235.03 402.704C1234.92 402.972 1234.74 402.861 1234.59 402.908C1234.39 402.968 1234.17 403.02 1234.01 403.141C1233.89 403.234 1233.85 403.429 1233.77 403.568C1233.58 403.399 1233.4 403.233 1233.07 402.944C1233.12 403.388 1232.7 403.454 1232.89 403.885C1233 404.142 1232.3 404.531 1231.87 404.36C1231.57 404.242 1231.6 404.497 1231.46 404.535C1231.69 405.218 1231.08 405.263 1230.72 405.488C1230.55 405.6 1230 405.968 1229.93 406.064C1229.86 406.146 1229.77 406.213 1229.7 406.28C1229.61 406.205 1229.53 406.119 1229.44 406.073C1229.38 406.047 1229.3 406.084 1229.18 406.098C1229.25 406.247 1229.31 406.385 1229.37 406.512C1229.33 406.591 1229.32 406.682 1229.27 406.713C1228.89 406.961 1228.47 407.163 1228.11 407.443C1227.25 408.114 1226.42 408.823 1225.58 409.511C1224.53 410.366 1223.46 411.189 1222.48 412.138C1222.03 412.582 1221.75 412.903 1221.61 413.556C1221.17 413.331 1220.68 413.341 1220.3 412.952C1219.97 412.609 1219.65 413.017 1219.27 413.159C1219.09 412.349 1219.78 412.204 1220.1 411.826C1219.99 411.719 1219.88 411.613 1219.79 411.515C1219.56 411.676 1219.34 411.835 1219.07 412.034C1219.02 411.837 1218.94 411.71 1218.98 411.639C1219.38 410.836 1220.05 410.259 1220.72 409.684C1220.91 409.522 1221.14 409.409 1221.33 409.241C1222.79 407.896 1224.41 406.761 1226.02 405.592C1227.52 404.501 1229.1 403.54 1230.59 402.448C1231.03 402.133 1231.62 402.068 1231.93 401.579C1233.38 401.088 1234.36 399.784 1235.86 399.365C1236.06 399.677 1235.82 399.71 1235.54 399.793C1235.38 399.842 1235.44 400.09 1235.18 400.227C1234.09 400.802 1233.07 401.503 1232.03 402.164C1231.96 402.208 1231.92 402.299 1231.73 402.542C1232.05 402.428 1232.17 402.365 1232.29 402.348C1232.74 402.289 1232.93 401.818 1233.41 401.739C1233.79 401.677 1234.15 401.339 1234.47 401.059C1235.14 400.462 1235.99 400.174 1236.74 399.72C1237.25 399.413 1237.68 398.988 1238.28 398.806C1238.52 398.736 1238.66 398.383 1238.85 398.159C1239.24 397.934 1239.63 397.721 1240.01 397.478C1240.35 397.255 1240.77 397.223 1241.07 396.831C1241.37 396.445 1242.05 396.476 1242.47 396.126Z" fill="#726C65"/>
<path fill-rule="evenodd" clip-rule="evenodd" d="M1195.47 426.626C1195.83 426.387 1196.35 426.22 1196.49 425.89C1196.69 425.425 1197.07 425.291 1197.4 425.049C1197.74 424.797 1198.12 424.602 1198.47 424.364C1198.82 424.123 1199.2 423.897 1199.5 423.597C1200.15 422.953 1200.88 422.428 1201.64 421.931C1201.82 421.817 1202.03 421.761 1202.2 421.652C1202.38 421.544 1202.61 421.438 1202.69 421.271C1203.06 420.443 1203.85 420.133 1204.55 419.716C1204.95 419.476 1205.21 419.599 1205.64 420.046C1205.49 420.597 1204.8 420.749 1204.68 421.344C1204.66 421.436 1204.3 421.457 1204.09 421.509C1203.78 421.589 1203.99 422.165 1203.57 422.098C1203.2 422.039 1203.2 422.325 1203.06 422.507C1203.02 422.563 1202.76 422.454 1202.56 422.411C1202.44 422.645 1202.29 422.943 1202.14 423.238H1201.76C1201.5 423.554 1201.3 424.016 1201.04 424.06C1200.64 424.126 1200.74 424.778 1200.25 424.602C1200.19 424.581 1200.05 424.671 1200 424.743C1199.89 424.881 1199.84 425.146 1199.72 425.177C1199.26 425.295 1199.09 425.815 1198.68 425.934C1197.9 426.159 1197.39 426.785 1196.69 427.123C1196.55 427.191 1196.4 427.401 1196.39 427.551C1196.37 428.018 1196.13 428.114 1195.72 428.245C1195.41 428.345 1195.11 428.743 1194.98 429.077C1194.8 429.522 1194.23 429.099 1194.1 429.584C1194.04 429.826 1193.91 430.2 1193.54 429.8C1193.44 429.907 1193.23 430.017 1193.24 430.119C1193.26 430.661 1192.81 430.376 1192.6 430.51C1192.44 430.656 1192.96 430.768 1192.6 431.003C1192.05 431.357 1191.61 431.892 1191.06 432.233C1190.86 432.358 1190.76 432.434 1190.68 432.644C1190.64 432.768 1190.45 432.956 1190.37 432.936C1189.72 432.769 1189.43 433.252 1189.05 433.597C1189.03 433.61 1188.89 433.484 1188.78 433.401C1188.61 433.646 1188.84 434.183 1188.27 434.177C1188.19 434.176 1188.09 434.312 1188.04 434.407C1187.56 435.316 1187.57 435.324 1186.77 435.892C1186.62 435.995 1186.7 436.615 1186.26 436.126C1186.26 436.119 1186.01 436.253 1185.99 436.344C1185.85 437.114 1185.16 437.424 1184.69 437.923C1184.08 437.833 1183.91 438.416 1183.53 438.675C1183.28 438.846 1183 438.905 1183.01 439.36C1183.01 439.678 1182.59 439.824 1182.18 439.678C1182.33 439.433 1182.48 439.193 1182.68 438.884C1182.51 438.897 1182.43 438.88 1182.41 438.909C1182.26 439.061 1182.09 439.153 1181.95 438.95C1181.9 438.881 1181.98 438.632 1182.06 438.585C1182.62 438.284 1182.86 437.744 1183.16 437.245C1183.61 437.279 1183.61 437.279 1183.77 437.632C1183.8 437.649 1183.85 437.68 1183.85 437.68C1184.06 437.371 1184.69 437.48 1184.61 436.785C1184.36 436.896 1184.23 437.102 1183.93 437.346C1184 437.07 1184 436.893 1184.09 436.783C1184.22 436.612 1184.4 436.472 1184.58 436.344C1184.92 436.097 1185.19 435.762 1185.29 435.377C1185.37 435.058 1185.45 434.858 1185.78 434.744C1185.95 434.685 1186.07 434.458 1186.21 434.308C1186.73 434.421 1186.86 433.754 1187.33 433.755C1187.3 433.157 1187.89 433.097 1188.21 432.934C1188.64 432.711 1188.71 432.231 1189.15 432.023C1189.66 431.784 1190.09 431.377 1190.52 431.003C1191.33 430.305 1192.1 429.577 1192.9 428.869C1193 428.778 1193.15 428.745 1193.26 428.656C1193.53 428.418 1193.79 428.148 1194.08 427.919C1194.31 427.734 1194.52 427.469 1194.72 427.348C1195.05 427.15 1195.3 426.947 1195.47 426.626Z" fill="#726C65"/>
<path fill-rule="evenodd" clip-rule="evenodd" d="M1179.88 440.408C1180.31 440.51 1180.44 440.12 1180.7 439.936C1180.92 439.782 1181 439.374 1181.49 439.585C1181.28 439.702 1181.1 439.801 1180.77 439.982C1181.16 440.21 1181.35 440.318 1181.51 440.414C1181.19 440.915 1180.54 441.09 1180.9 441.953C1180.6 441.685 1180.53 441.612 1180.4 441.5C1180.38 442.292 1179.96 442.706 1179.16 442.734C1179.26 442.834 1179.31 442.887 1179.43 443.006C1178.87 443.565 1178.29 444.107 1177.76 444.695C1177.24 445.261 1176.55 445.672 1176.22 446.414C1176.17 446.532 1175.83 446.523 1175.59 446.582C1175.67 446.675 1175.72 446.75 1175.79 446.827C1175.64 447.181 1175.24 447.326 1175.1 447.749C1174.93 448.232 1174.67 448.171 1174.19 447.733C1174.1 447.648 1173.84 447.75 1173.58 447.772C1173.61 447.68 1173.61 447.501 1173.7 447.397C1173.87 447.199 1174.09 447.042 1174.01 446.734C1174.29 446.423 1174.87 446.316 1174.71 445.701C1174.7 445.683 1174.75 445.63 1174.78 445.626C1175.49 445.525 1175.65 444.784 1176.15 444.423C1176.73 444.014 1177.11 443.345 1177.6 442.813C1178.35 442 1179.12 441.209 1179.88 440.408Z" fill="#726C65"/>
<path fill-rule="evenodd" clip-rule="evenodd" d="M1195.47 426.626C1195.3 426.947 1195.05 427.15 1194.72 427.348C1194.52 427.469 1194.31 427.734 1194.08 427.919C1193.79 428.148 1193.53 428.418 1193.26 428.656C1193.15 428.745 1193 428.778 1192.9 428.869C1192.1 429.577 1191.33 430.305 1190.52 431.003C1190.09 431.377 1189.66 431.784 1189.15 432.023C1188.71 432.231 1188.64 432.711 1188.21 432.934C1187.89 433.097 1187.3 433.157 1187.33 433.755C1186.86 433.754 1186.73 434.421 1186.21 434.308C1186.21 433.64 1186.77 433.288 1187.19 433.049C1187.9 432.643 1188.35 431.972 1189.04 431.542C1189.84 431.042 1190.47 430.278 1191.2 429.664C1192.4 428.662 1193.61 427.681 1194.84 426.718C1194.98 426.603 1195.26 426.653 1195.47 426.626Z" fill="#726C65"/>
<path fill-rule="evenodd" clip-rule="evenodd" d="M1179.88 440.408C1179.12 441.209 1178.35 442 1177.6 442.813C1177.11 443.345 1176.73 444.014 1176.15 444.423C1175.65 444.784 1175.49 445.525 1174.78 445.626C1174.75 445.63 1174.7 445.683 1174.71 445.701C1174.87 446.316 1174.29 446.423 1174.01 446.734C1173.73 446.949 1173.46 447.164 1173.15 447.405C1173.13 447.273 1173.07 447.122 1173.12 447.074C1174.41 445.711 1175.39 444.069 1176.88 442.894C1177.14 442.686 1176.98 442.237 1177.46 442.177C1177.68 442.15 1177.83 441.69 1178.05 441.468C1178.27 441.239 1178.56 441.076 1178.8 440.855C1179.02 440.65 1179.2 440.4 1179.41 440.184C1179.64 439.949 1179.88 439.722 1180.12 439.507C1180.38 439.279 1180.66 439.071 1181.05 438.76C1180.9 439.599 1180.11 439.811 1179.88 440.408Z" fill="#726C65"/>
<path fill-rule="evenodd" clip-rule="evenodd" d="M1169.94 438.6C1170.21 438.209 1170.86 438.161 1170.88 437.55C1171.29 437.287 1171.79 437.094 1172.1 436.742C1172.53 436.273 1172.85 435.735 1173.52 435.584C1174 434.753 1175.03 434.487 1175.49 433.637C1175.58 433.479 1175.84 433.413 1176.02 433.314C1176.68 432.957 1177.03 432.179 1177.8 431.981C1178.09 431.175 1179.13 431.153 1179.47 430.355C1179.58 430.092 1180.04 429.974 1180.34 429.79C1180.28 429.954 1180.28 430.177 1180.17 430.275C1179.74 430.656 1179.43 431.157 1178.85 431.415C1178.33 431.649 1178.07 432.227 1177.53 432.538C1176.82 432.949 1176.25 433.611 1175.62 434.167C1174.94 434.773 1174.29 435.423 1173.56 435.979C1172.5 436.802 1171.47 437.661 1170.49 438.6H1169.94Z" fill="#726C65"/>
<path fill-rule="evenodd" clip-rule="evenodd" d="M1242.47 396.126C1242.05 396.476 1241.37 396.445 1241.07 396.831C1240.77 397.223 1240.35 397.255 1240.01 397.478C1239.63 397.721 1239.24 397.934 1238.85 398.159C1238.2 398.261 1237.77 398.78 1237.2 399.034C1236.88 399.174 1236.6 399.389 1236.16 399.662C1236.2 399.357 1236.17 399.152 1236.26 399.078C1236.55 398.823 1236.86 398.581 1237.2 398.391C1238.56 397.625 1239.94 396.881 1241.31 396.125C1241.61 395.956 1241.9 395.748 1242.21 395.602C1242.42 395.506 1242.66 395.487 1242.98 395.41C1242.75 395.733 1242.61 395.93 1242.47 396.126Z" fill="#726C65"/>
</g>
<g opacity="0.3">
<path fill-rule="evenodd" clip-rule="evenodd" d="M310.943 446.6C310.311 447.099 309.758 447.651 309.284 448.323C308.942 448.809 308.46 449.226 307.911 449.575C307.307 449.958 306.854 450.582 306.228 450.982C305.842 451.229 305.576 451.831 304.976 451.365C304.706 451.517 304.437 451.669 304.099 451.861C303.89 451.608 303.686 451.364 303.489 451.115C303.448 451.062 303.417 450.931 303.408 450.933C302.731 451.126 302.357 450.319 301.684 450.426C301.318 450.484 300.76 450.083 300.801 449.782C300.883 449.173 300.477 448.911 300.131 448.554C299.997 447.796 300.2 447.096 300.542 446.402C300.88 445.717 301.098 444.97 301.465 444.303C302.21 442.949 303.013 441.629 303.803 440.3C304.617 438.929 305.488 437.598 306.412 436.296C307.255 435.106 308.068 433.895 308.91 432.703C309.423 431.977 309.924 431.242 310.424 430.507C310.446 430.475 310.406 430.403 310.369 430.232C310.113 430.44 309.916 430.721 309.68 430.758C309.37 430.809 309.113 430.795 309.077 431.182C308.546 431.005 308.468 431.833 307.952 431.689C307.806 432.014 307.488 432.233 307.219 432.319C306.903 432.422 306.63 432.42 306.519 432.813C306.488 432.924 306.187 433.07 306.074 433.027C305.58 432.842 305.589 433.483 305.258 433.49C304.856 433.498 304.643 433.669 304.611 434.068C304.096 434.168 303.803 434.615 303.38 434.863C303.015 435.076 302.595 435.316 302.401 435.659C302.277 435.879 302.178 435.958 301.978 436.025C301.329 436.245 300.9 436.799 300.314 437.133C299.724 437.469 299.232 437.978 298.691 438.404C298.012 438.94 297.329 439.472 296.643 440.001C296.231 440.318 295.778 440.161 295.42 439.965C295.147 439.816 294.984 439.562 294.633 439.803C294.586 439.835 294.358 439.605 294.142 439.442C294.345 439.301 294.522 439.178 294.699 439.055C294.67 439.005 294.641 438.955 294.611 438.905C294.437 438.97 294.263 439.034 294.063 439.107C294.047 439.042 293.978 438.924 294.007 438.843C294.078 438.648 294.159 438.435 294.3 438.29C295.086 437.48 295.854 436.646 296.698 435.898C298.118 434.64 299.565 433.409 301.049 432.226C302.064 431.417 303.1 430.63 304.134 429.846C305.064 429.141 306.036 428.467 306.985 427.785C308.202 426.91 309.443 426.081 310.701 425.272C311.5 424.758 312.32 424.277 313.132 423.782C313.669 423.455 314.266 423.576 314.844 423.553C315.247 423.771 315.463 424.182 316.021 424.288C316.657 424.409 317.835 426.127 317.927 426.834C317.996 427.358 317.71 427.858 317.55 428.362C317.271 429.244 316.878 430.061 316.273 430.77C316.208 430.847 316.123 430.978 316.148 431.049C316.356 431.633 315.662 431.835 315.631 432.31C315.035 432.658 314.76 433.279 314.366 433.799C314.298 433.888 314.138 433.96 314.139 434.039C314.147 435.081 313.315 435.665 312.848 436.445C312.703 436.689 312.5 436.902 312.382 437.156C312.301 437.331 312.32 437.552 312.294 437.752C312.457 437.772 312.559 437.816 312.595 437.784C313.372 437.108 314.106 436.375 314.922 435.751C315.985 434.939 316.91 433.964 318.055 433.246C318.602 432.902 319.012 432.36 319.555 431.966C320.556 431.239 321.41 430.305 322.43 429.61C324.183 428.417 325.648 426.847 327.516 425.815C328.002 425.042 328.911 424.759 329.502 424.102C329.661 423.925 329.917 423.836 330.118 423.694C330.412 423.488 330.701 423.276 330.984 423.056C332.124 422.17 333.258 421.277 334.399 420.394C334.881 420.022 335.39 419.682 335.865 419.301C337.206 418.226 338.626 417.258 340.015 416.249C340.738 415.723 341.371 415.08 342.223 414.745C342.817 413.876 343.788 413.473 344.584 412.855C345.547 412.109 346.538 411.399 347.521 410.679C348.791 409.749 350.063 408.823 351.339 407.9C352.149 407.315 352.963 406.736 353.78 406.16C354.771 405.463 355.785 404.8 356.763 404.082C358.251 402.99 359.808 401.993 361.34 400.964C363.253 399.679 365.165 398.392 367.09 397.124C368.151 396.426 369.233 395.758 370.313 395.091C371.601 394.296 372.883 393.49 374.195 392.737C375.141 392.195 376.116 391.708 377.013 391.075C377.232 390.921 377.653 391.052 378.112 391.052C377.991 391.24 377.938 391.382 377.837 391.469C377.534 391.733 377.212 391.976 376.841 392.272C377.646 392.647 378.17 391.553 378.838 391.956C378.63 392.164 378.405 392.389 378.18 392.613C378.223 392.68 378.264 392.747 378.307 392.814C378.546 392.744 378.784 392.675 379.101 392.583C379.155 392.999 379.208 393.405 379.28 393.964C378.998 394.189 378.631 394.682 378.171 394.795C377.612 394.933 377.438 395.621 376.797 395.564C376.63 395.549 376.742 396.13 376.328 395.99C375.884 395.838 376.141 396.557 375.743 396.444C375.372 396.339 375.349 396.832 375.257 396.829C374.679 396.81 374.521 397.378 374.106 397.576C373.663 397.788 373.242 398.066 372.857 398.372C372.513 398.644 372.179 398.874 371.732 398.942C371.574 398.966 371.324 399.128 371.315 399.242C371.283 399.626 371.046 399.568 370.792 399.628C370.61 399.672 370.496 399.983 370.31 400.04C370.094 400.107 369.848 400.046 369.91 400.397C369.139 400.44 368.948 401.514 368.092 401.424C368.009 401.415 367.876 401.504 367.829 401.585C367.287 402.524 366.278 402.879 365.469 403.483C364.29 404.363 363.113 405.246 361.929 406.117C360.979 406.816 360.032 407.522 359.057 408.185C358.538 408.537 358.162 409.168 357.404 409.103C357.351 409.098 357.26 409.176 357.239 409.235C356.825 410.404 355.477 410.351 354.761 411.127C354.642 411.257 354.437 411.318 354.341 411.459C353.493 412.715 352.077 413.292 350.999 414.278C350.208 415.001 349.283 415.577 348.43 416.235C347.371 417.05 346.328 417.885 345.272 418.704C345.166 418.786 345.02 418.82 344.889 418.866C343.818 419.245 343.069 420.101 342.155 420.713C341.953 420.848 341.763 421.075 341.683 421.3C341.499 421.814 341.021 422.071 340.633 422.153C340.219 422.24 339.987 422.448 339.713 422.684C339.173 423.148 338.532 423.509 338.211 424.19C337.232 424.801 336.376 425.585 335.489 426.306C334.759 426.9 333.895 427.36 333.315 428.159C332.934 428.683 332.306 428.956 331.714 429.175C331.467 429.267 331.231 429.32 331.071 429.528C330.898 429.753 330.796 430.071 330.575 430.211C330.333 430.364 330.2 430.556 330.026 430.761C329.536 431.339 328.994 431.897 328.144 431.917C328.076 431.919 327.996 431.937 327.944 431.977C327.572 432.264 327.172 432.526 326.847 432.861C326.468 433.249 325.955 433.537 325.795 434.115C325.777 434.178 325.696 434.227 325.639 434.275C325.166 434.676 324.697 435.082 324.214 435.471C323.731 435.861 323.367 436.359 322.816 436.708C322.312 437.027 321.839 437.44 321.336 437.79C321.038 437.974 320.585 438.092 320.472 438.355C320.131 439.153 319.092 439.175 318.805 439.981C318.027 440.179 317.682 440.957 317.022 441.314C316.838 441.413 316.579 441.479 316.492 441.637C316.026 442.487 314.996 442.753 314.524 443.584C313.855 443.735 313.525 444.273 313.104 444.742C312.787 445.094 312.295 445.287 311.88 445.55C311.859 446.161 311.209 446.209 310.943 446.6Z" fill="#726C65"/>
<path fill-rule="evenodd" clip-rule="evenodd" d="M383.466 404.126C383.828 404.046 384.19 403.966 384.719 403.849C384.516 404.08 384.448 404.158 384.357 404.261C384.493 404.307 384.621 404.35 384.754 404.394C384.846 404.752 384.976 405.174 384.563 405.364C384.351 405.461 384.018 405.294 383.708 405.369C383.847 405.437 383.987 405.505 384.144 405.581C383.679 406.143 383.057 406.235 382.376 406.136C382.35 406.39 382.332 406.568 382.306 406.819C381.817 406.4 381.443 406.919 380.899 406.878C381.018 407.113 381.095 407.264 381.172 407.414C380.996 407.529 380.805 407.699 380.581 407.789C380.262 407.918 380.034 408.48 379.57 408.033C379.548 408.012 379.455 408.037 379.417 408.068C379.329 408.138 379.269 408.257 379.173 408.298C378.82 408.446 378.396 408.495 378.116 408.725C377.869 408.929 377.807 409.343 377.608 409.626C377.493 409.79 377.281 409.907 377.09 409.992C376.886 410.084 376.132 410.458 376.03 410.704C375.918 410.972 375.743 410.861 375.588 410.908C375.389 410.968 375.171 411.02 375.012 411.141C374.89 411.234 374.847 411.429 374.774 411.568C374.582 411.399 374.396 411.233 374.069 410.944C374.116 411.388 373.696 411.454 373.888 411.885C374.003 412.142 373.296 412.531 372.868 412.36C372.574 412.242 372.597 412.497 372.459 412.535C372.691 413.218 372.081 413.263 371.724 413.488C371.547 413.6 371.003 413.968 370.926 414.064C370.859 414.146 370.772 414.213 370.701 414.28C370.609 414.205 370.532 414.119 370.436 414.073C370.381 414.047 370.295 414.084 370.177 414.098C370.247 414.247 370.31 414.385 370.369 414.512C370.334 414.591 370.323 414.682 370.273 414.713C369.888 414.961 369.47 415.163 369.111 415.443C368.252 416.114 367.423 416.823 366.578 417.511C365.528 418.366 364.455 419.189 363.483 420.138C363.028 420.582 362.747 420.903 362.607 421.556C362.172 421.331 361.679 421.341 361.302 420.952C360.969 420.609 360.646 421.017 360.271 421.159C360.088 420.349 360.777 420.204 361.097 419.826C360.99 419.719 360.884 419.613 360.786 419.515C360.563 419.676 360.341 419.835 360.065 420.034C360.018 419.837 359.941 419.71 359.977 419.639C360.385 418.836 361.054 418.259 361.721 417.684C361.91 417.522 362.142 417.409 362.325 417.241C363.791 415.896 365.413 414.761 367.018 413.592C368.517 412.501 370.099 411.54 371.593 410.448C372.025 410.133 372.615 410.068 372.929 409.579C374.381 409.088 375.361 407.784 376.859 407.365C377.064 407.677 376.817 407.71 376.54 407.793C376.376 407.842 376.439 408.09 376.18 408.227C375.092 408.802 374.07 409.503 373.028 410.164C372.958 410.208 372.919 410.299 372.73 410.542C373.053 410.428 373.171 410.365 373.294 410.348C373.738 410.289 373.927 409.818 374.407 409.739C374.79 409.677 375.153 409.339 375.468 409.059C376.142 408.462 376.989 408.174 377.742 407.72C378.251 407.413 378.683 406.988 379.284 406.806C379.517 406.736 379.664 406.383 379.851 406.159C380.238 405.934 380.633 405.721 381.008 405.478C381.353 405.255 381.766 405.223 382.073 404.831C382.375 404.445 383.049 404.476 383.466 404.126Z" fill="#726C65"/>
<path fill-rule="evenodd" clip-rule="evenodd" d="M336.473 434.626C336.826 434.387 337.346 434.22 337.49 433.89C337.692 433.425 338.072 433.291 338.399 433.049C338.739 432.797 339.119 432.602 339.469 432.364C339.824 432.123 340.202 431.897 340.503 431.597C341.151 430.953 341.884 430.428 342.643 429.931C342.815 429.817 343.025 429.761 343.203 429.652C343.38 429.544 343.615 429.438 343.689 429.271C344.06 428.443 344.854 428.133 345.547 427.716C345.947 427.476 346.213 427.599 346.642 428.046C346.493 428.597 345.802 428.749 345.677 429.344C345.658 429.436 345.296 429.457 345.091 429.509C344.779 429.589 344.994 430.165 344.569 430.098C344.195 430.039 344.204 430.325 344.062 430.507C344.019 430.563 343.762 430.454 343.558 430.411C343.44 430.645 343.29 430.943 343.141 431.238H342.764C342.503 431.554 342.304 432.016 342.038 432.06C341.637 432.126 341.737 432.778 341.247 432.602C341.186 432.581 341.053 432.671 340.997 432.743C340.89 432.881 340.842 433.146 340.724 433.177C340.259 433.295 340.088 433.815 339.681 433.934C338.904 434.159 338.386 434.785 337.687 435.123C337.547 435.191 337.398 435.401 337.392 435.551C337.372 436.018 337.127 436.114 336.718 436.245C336.407 436.345 336.109 436.743 335.975 437.077C335.796 437.522 335.225 437.099 335.104 437.584C335.044 437.826 334.908 438.2 334.542 437.8C334.435 437.907 334.234 438.017 334.238 438.119C334.26 438.661 333.814 438.376 333.603 438.51C333.439 438.656 333.959 438.768 333.596 439.003C333.047 439.357 332.615 439.892 332.061 440.233C331.86 440.358 331.756 440.434 331.682 440.644C331.638 440.768 331.45 440.956 331.372 440.936C330.721 440.769 330.427 441.252 330.049 441.597C330.035 441.61 329.893 441.484 329.784 441.401C329.61 441.646 329.837 442.183 329.272 442.177C329.193 442.176 329.087 442.312 329.037 442.407C328.562 443.316 328.57 443.324 327.766 443.892C327.621 443.995 327.697 444.615 327.264 444.126C327.259 444.119 327.012 444.253 326.994 444.344C326.847 445.114 326.156 445.424 325.691 445.923C325.083 445.833 324.914 446.416 324.534 446.675C324.284 446.846 324.004 446.905 324.009 447.36C324.012 447.678 323.592 447.824 323.177 447.678C323.331 447.433 323.483 447.193 323.678 446.884C323.509 446.897 323.434 446.88 323.407 446.909C323.26 447.061 323.09 447.153 322.951 446.95C322.904 446.881 322.978 446.632 323.063 446.585C323.615 446.284 323.861 445.744 324.161 445.245C324.61 445.279 324.61 445.279 324.773 445.632C324.799 445.649 324.849 445.68 324.849 445.68C325.058 445.371 325.693 445.48 325.609 444.785C325.362 444.896 325.231 445.102 324.932 445.346C325.004 445.07 325.004 444.893 325.09 444.783C325.222 444.612 325.402 444.472 325.58 444.344C325.924 444.097 326.186 443.762 326.285 443.377C326.368 443.058 326.446 442.858 326.78 442.744C326.953 442.685 327.068 442.458 327.21 442.308C327.73 442.421 327.863 441.754 328.328 441.755C328.302 441.157 328.89 441.097 329.206 440.934C329.637 440.711 329.712 440.231 330.15 440.023C330.656 439.784 331.091 439.377 331.523 439.003C332.326 438.305 333.103 437.577 333.898 436.869C333.999 436.778 334.151 436.745 334.255 436.656C334.535 436.418 334.789 436.148 335.076 435.919C335.306 435.734 335.522 435.469 335.723 435.348C336.05 435.15 336.297 434.947 336.473 434.626Z" fill="#726C65"/>
<path fill-rule="evenodd" clip-rule="evenodd" d="M320.884 448.408C321.307 448.51 321.443 448.12 321.701 447.936C321.917 447.782 322.001 447.374 322.494 447.585C322.281 447.702 322.102 447.801 321.773 447.982C322.163 448.21 322.346 448.318 322.51 448.414C322.187 448.915 321.54 449.09 321.897 449.953C321.603 449.685 321.525 449.612 321.403 449.5C321.375 450.292 320.961 450.706 320.16 450.734C320.26 450.834 320.313 450.887 320.432 451.006C319.873 451.565 319.289 452.107 318.755 452.695C318.24 453.261 317.553 453.672 317.219 454.414C317.166 454.532 316.833 454.523 316.591 454.582C316.666 454.675 316.725 454.75 316.787 454.827C316.638 455.181 316.241 455.326 316.097 455.749C315.933 456.232 315.674 456.171 315.19 455.733C315.097 455.648 314.836 455.75 314.581 455.772C314.608 455.68 314.611 455.501 314.701 455.397C314.872 455.199 315.089 455.042 315.01 454.734C315.29 454.423 315.872 454.316 315.707 453.701C315.702 453.683 315.753 453.63 315.783 453.626C316.491 453.525 316.646 452.784 317.153 452.423C317.725 452.014 318.107 451.345 318.598 450.813C319.348 450 320.121 449.209 320.884 448.408Z" fill="#726C65"/>
<path fill-rule="evenodd" clip-rule="evenodd" d="M336.473 434.626C336.297 434.947 336.05 435.15 335.723 435.348C335.522 435.469 335.306 435.734 335.076 435.919C334.789 436.148 334.535 436.418 334.255 436.656C334.151 436.745 333.999 436.778 333.898 436.869C333.103 437.577 332.326 438.305 331.523 439.003C331.091 439.377 330.656 439.784 330.15 440.023C329.712 440.231 329.637 440.711 329.206 440.934C328.89 441.097 328.302 441.157 328.328 441.755C327.863 441.754 327.73 442.421 327.21 442.308C327.209 441.64 327.769 441.288 328.189 441.049C328.9 440.643 329.348 439.972 330.036 439.542C330.836 439.042 331.467 438.278 332.201 437.664C333.398 436.662 334.611 435.681 335.838 434.718C335.983 434.603 336.258 434.653 336.473 434.626Z" fill="#726C65"/>
<path fill-rule="evenodd" clip-rule="evenodd" d="M320.884 448.408C320.121 449.209 319.348 450 318.598 450.813C318.107 451.345 317.725 452.014 317.153 452.423C316.646 452.784 316.491 453.525 315.783 453.626C315.753 453.63 315.702 453.683 315.707 453.701C315.872 454.316 315.29 454.423 315.01 454.734C314.734 454.949 314.459 455.164 314.149 455.405C314.135 455.273 314.073 455.122 314.119 455.074C315.409 453.711 316.394 452.069 317.878 450.894C318.141 450.686 317.978 450.237 318.465 450.177C318.683 450.15 318.826 449.69 319.046 449.468C319.272 449.239 319.564 449.076 319.801 448.855C320.021 448.65 320.198 448.4 320.409 448.184C320.637 447.949 320.875 447.722 321.123 447.507C321.385 447.279 321.663 447.071 322.052 446.76C321.902 447.599 321.115 447.811 320.884 448.408Z" fill="#726C65"/>
<path fill-rule="evenodd" clip-rule="evenodd" d="M310.943 446.6C311.209 446.209 311.859 446.161 311.88 445.55C312.295 445.287 312.787 445.094 313.104 444.742C313.525 444.273 313.855 443.735 314.524 443.584C314.996 442.753 316.026 442.487 316.492 441.637C316.579 441.479 316.838 441.413 317.022 441.314C317.682 440.957 318.027 440.179 318.805 439.981C319.092 439.175 320.131 439.153 320.472 438.355C320.585 438.092 321.038 437.974 321.336 437.79C321.284 437.954 321.281 438.177 321.17 438.275C320.736 438.656 320.427 439.157 319.854 439.415C319.335 439.649 319.068 440.227 318.53 440.538C317.817 440.949 317.248 441.611 316.62 442.167C315.935 442.773 315.285 443.423 314.564 443.979C313.497 444.802 312.467 445.661 311.485 446.6H310.943Z" fill="#726C65"/>
<path fill-rule="evenodd" clip-rule="evenodd" d="M383.466 404.126C383.049 404.476 382.375 404.445 382.073 404.831C381.766 405.223 381.353 405.255 381.008 405.478C380.633 405.721 380.238 405.934 379.851 406.159C379.2 406.261 378.769 406.78 378.196 407.034C377.882 407.174 377.602 407.389 377.155 407.662C377.203 407.357 377.174 407.152 377.258 407.078C377.55 406.823 377.864 406.581 378.202 406.391C379.564 405.625 380.938 404.881 382.306 404.125C382.611 403.956 382.897 403.748 383.211 403.602C383.417 403.506 383.659 403.487 383.984 403.41C383.75 403.733 383.608 403.93 383.466 404.126Z" fill="#726C65"/>
</g>
<g opacity="0.4">
<path fill-rule="evenodd" clip-rule="evenodd" d="M463.348 605.788C461.711 605.788 460.071 605.827 458.436 605.773C457.395 605.739 456.492 605.226 455.696 604.593C455.19 604.191 454.871 603.62 455.05 602.921C455.286 602.002 455.817 602.639 456.307 602.622C465.786 602.303 475.147 600.859 484.529 599.607C486.703 599.318 488.921 599.29 491.119 599.291C491.806 599.292 492.891 599.147 492.95 600.414C493.001 601.49 492.246 601.803 491.423 602.026C487.153 603.183 482.758 603.645 478.402 604.313C473.417 605.078 468.383 605.415 463.348 605.788Z" fill="#D99655"/>
<path fill-rule="evenodd" clip-rule="evenodd" d="M512.466 584.694C511.444 584.451 510.325 583.911 509.714 582.849C506.757 577.714 504.028 572.454 501.633 567.032C501.002 565.602 501.514 565.868 502.891 565.34C506.254 564.051 507.035 566.719 508.402 568.435C510.815 571.466 512.585 574.877 513.864 578.54C514.196 579.493 514.566 580.433 514.94 581.37C515.974 583.966 515.565 584.568 512.466 584.694Z" fill="#D99655"/>
<path fill-rule="evenodd" clip-rule="evenodd" d="M504.598 590.098C501.913 591.693 499.784 590.314 497.51 589.275C493.242 587.326 489.461 584.6 485.541 582.091C484.83 581.635 483.661 581.11 483.985 580.229C484.302 579.367 485.582 579.545 486.478 579.527C487.806 579.499 488.88 580.304 489.947 580.912C494.424 583.46 498.842 586.114 503.271 588.746C503.794 589.056 504.377 589.35 504.598 590.098Z" fill="#D99655"/>
</g>
<g opacity="0.3">
<path fill-rule="evenodd" clip-rule="evenodd" d="M1366.17 563.62C1365.75 562.039 1365.29 560.465 1364.92 558.872C1364.68 557.858 1364.94 556.853 1365.35 555.92C1365.61 555.327 1366.07 554.871 1366.8 554.863C1367.74 554.853 1367.27 555.531 1367.41 556C1370.17 565.073 1373.99 573.741 1377.63 582.48C1378.47 584.505 1379.07 586.64 1379.64 588.763C1379.81 589.428 1380.23 590.438 1379.03 590.823C1378 591.151 1377.5 590.502 1377.07 589.765C1374.85 585.94 1373.27 581.814 1371.5 577.78C1369.47 573.162 1367.84 568.387 1366.17 563.62Z" fill="#726C65"/>
<path fill-rule="evenodd" clip-rule="evenodd" d="M1399.26 605.605C1399.23 604.555 1399.46 603.334 1400.33 602.469C1404.53 598.284 1408.9 594.287 1413.52 590.57C1414.74 589.59 1414.61 590.154 1415.48 591.347C1417.59 594.262 1415.22 595.707 1413.92 597.471C1411.61 600.587 1408.78 603.179 1405.57 605.363C1404.73 605.93 1403.92 606.531 1403.11 607.135C1400.87 608.805 1400.19 608.566 1399.26 605.605Z" fill="#726C65"/>
<path fill-rule="evenodd" clip-rule="evenodd" d="M1392.01 599.404C1389.77 597.224 1390.55 594.81 1390.97 592.345C1391.74 587.717 1393.4 583.36 1394.81 578.924C1395.06 578.119 1395.27 576.854 1396.2 576.939C1397.12 577.021 1397.28 578.304 1397.53 579.166C1397.9 580.441 1397.4 581.686 1397.09 582.874C1395.78 587.859 1394.36 592.813 1392.97 597.773C1392.8 598.358 1392.67 598.997 1392.01 599.404Z" fill="#726C65"/>
</g>
</svg>
