<svg width="1600" height="336" viewBox="0 0 1600 336" fill="none" xmlns="http://www.w3.org/2000/svg">
<rect width="1600" height="336" fill="#FFF0E3"/>
<g opacity="0.3">
<path fill-rule="evenodd" clip-rule="evenodd" d="M1169.94 308.6C1169.31 309.099 1168.76 309.651 1168.28 310.323C1167.94 310.809 1167.46 311.226 1166.91 311.575C1166.31 311.958 1165.85 312.582 1165.23 312.982C1164.84 313.229 1164.58 313.831 1163.98 313.365C1163.71 313.517 1163.44 313.669 1163.1 313.861C1162.89 313.608 1162.69 313.364 1162.49 313.115C1162.45 313.062 1162.42 312.931 1162.41 312.933C1161.73 313.126 1161.36 312.319 1160.68 312.426C1160.32 312.484 1159.76 312.083 1159.8 311.782C1159.88 311.173 1159.48 310.911 1159.13 310.554C1159 309.796 1159.2 309.096 1159.54 308.402C1159.88 307.717 1160.1 306.97 1160.47 306.303C1161.21 304.949 1162.01 303.629 1162.8 302.3C1163.62 300.929 1164.49 299.598 1165.41 298.296C1166.26 297.106 1167.07 295.895 1167.91 294.703C1168.42 293.977 1168.92 293.242 1169.42 292.507C1169.45 292.475 1169.41 292.403 1169.37 292.232C1169.11 292.44 1168.92 292.721 1168.68 292.758C1168.37 292.809 1168.11 292.795 1168.08 293.182C1167.55 293.005 1167.47 293.833 1166.95 293.689C1166.81 294.014 1166.49 294.233 1166.22 294.319C1165.9 294.422 1165.63 294.42 1165.52 294.813C1165.49 294.924 1165.19 295.07 1165.07 295.027C1164.58 294.842 1164.59 295.483 1164.26 295.49C1163.86 295.498 1163.64 295.669 1163.61 296.068C1163.1 296.168 1162.8 296.615 1162.38 296.863C1162.01 297.076 1161.6 297.316 1161.4 297.659C1161.28 297.879 1161.18 297.958 1160.98 298.025C1160.33 298.245 1159.9 298.799 1159.31 299.133C1158.72 299.469 1158.23 299.978 1157.69 300.404C1157.01 300.94 1156.33 301.472 1155.64 302.001C1155.23 302.318 1154.78 302.161 1154.42 301.965C1154.15 301.816 1153.98 301.562 1153.63 301.803C1153.59 301.835 1153.36 301.605 1153.14 301.442C1153.34 301.301 1153.52 301.178 1153.7 301.055C1153.67 301.005 1153.64 300.955 1153.61 300.905C1153.44 300.97 1153.26 301.034 1153.06 301.107C1153.05 301.042 1152.98 300.924 1153.01 300.843C1153.08 300.648 1153.16 300.435 1153.3 300.29C1154.09 299.48 1154.85 298.646 1155.7 297.898C1157.12 296.64 1158.57 295.409 1160.05 294.226C1161.06 293.417 1162.1 292.63 1163.13 291.846C1164.06 291.141 1165.04 290.467 1165.98 289.785C1167.2 288.91 1168.44 288.081 1169.7 287.272C1170.5 286.758 1171.32 286.277 1172.13 285.782C1172.67 285.455 1173.27 285.576 1173.84 285.553C1174.25 285.771 1174.46 286.182 1175.02 286.288C1175.66 286.409 1176.83 288.127 1176.93 288.834C1177 289.358 1176.71 289.858 1176.55 290.362C1176.27 291.244 1175.88 292.061 1175.27 292.77C1175.21 292.847 1175.12 292.978 1175.15 293.049C1175.36 293.633 1174.66 293.835 1174.63 294.31C1174.03 294.658 1173.76 295.279 1173.37 295.799C1173.3 295.888 1173.14 295.96 1173.14 296.039C1173.15 297.081 1172.31 297.665 1171.85 298.445C1171.7 298.689 1171.5 298.902 1171.38 299.156C1171.3 299.331 1171.32 299.552 1171.29 299.752C1171.46 299.772 1171.56 299.816 1171.6 299.784C1172.37 299.108 1173.11 298.375 1173.92 297.751C1174.98 296.939 1175.91 295.964 1177.05 295.246C1177.6 294.902 1178.01 294.36 1178.56 293.966C1179.56 293.239 1180.41 292.305 1181.43 291.61C1183.18 290.417 1184.65 288.847 1186.52 287.815C1187 287.042 1187.91 286.759 1188.5 286.102C1188.66 285.925 1188.92 285.836 1189.12 285.694C1189.41 285.488 1189.7 285.276 1189.98 285.056C1191.12 284.17 1192.26 283.277 1193.4 282.394C1193.88 282.022 1194.39 281.682 1194.86 281.301C1196.21 280.226 1197.63 279.258 1199.02 278.249C1199.74 277.723 1200.37 277.08 1201.22 276.745C1201.82 275.876 1202.79 275.473 1203.58 274.855C1204.55 274.109 1205.54 273.399 1206.52 272.679C1207.79 271.749 1209.06 270.823 1210.34 269.9C1211.15 269.315 1211.96 268.736 1212.78 268.16C1213.77 267.463 1214.78 266.8 1215.76 266.082C1217.25 264.99 1218.81 263.993 1220.34 262.964C1222.25 261.679 1224.17 260.392 1226.09 259.124C1227.15 258.426 1228.23 257.758 1229.31 257.091C1230.6 256.296 1231.88 255.49 1233.2 254.737C1234.14 254.195 1235.12 253.708 1236.01 253.075C1236.23 252.921 1236.65 253.052 1237.11 253.052C1236.99 253.24 1236.94 253.382 1236.84 253.469C1236.53 253.733 1236.21 253.976 1235.84 254.272C1236.65 254.647 1237.17 253.553 1237.84 253.956C1237.63 254.164 1237.41 254.389 1237.18 254.613C1237.22 254.68 1237.26 254.747 1237.31 254.814C1237.55 254.744 1237.78 254.675 1238.1 254.583C1238.16 254.999 1238.21 255.405 1238.28 255.964C1238 256.189 1237.63 256.682 1237.17 256.795C1236.61 256.933 1236.44 257.621 1235.8 257.564C1235.63 257.549 1235.74 258.13 1235.33 257.99C1234.88 257.838 1235.14 258.557 1234.74 258.444C1234.37 258.339 1234.35 258.832 1234.26 258.829C1233.68 258.81 1233.52 259.378 1233.11 259.576C1232.66 259.788 1232.24 260.066 1231.86 260.372C1231.51 260.644 1231.18 260.874 1230.73 260.942C1230.57 260.966 1230.32 261.128 1230.31 261.242C1230.28 261.626 1230.05 261.568 1229.79 261.628C1229.61 261.672 1229.5 261.983 1229.31 262.04C1229.09 262.107 1228.85 262.046 1228.91 262.397C1228.14 262.44 1227.95 263.514 1227.09 263.424C1227.01 263.415 1226.88 263.504 1226.83 263.585C1226.29 264.524 1225.28 264.879 1224.47 265.483C1223.29 266.363 1222.11 267.246 1220.93 268.117C1219.98 268.816 1219.03 269.522 1218.06 270.185C1217.54 270.537 1217.16 271.168 1216.4 271.103C1216.35 271.098 1216.26 271.176 1216.24 271.235C1215.82 272.404 1214.48 272.351 1213.76 273.127C1213.64 273.257 1213.44 273.318 1213.34 273.459C1212.49 274.715 1211.08 275.292 1210 276.278C1209.21 277.001 1208.28 277.577 1207.43 278.235C1206.37 279.05 1205.33 279.885 1204.27 280.704C1204.17 280.786 1204.02 280.82 1203.89 280.866C1202.82 281.245 1202.07 282.101 1201.15 282.713C1200.95 282.848 1200.76 283.075 1200.68 283.3C1200.5 283.814 1200.02 284.071 1199.63 284.153C1199.22 284.24 1198.99 284.448 1198.71 284.684C1198.17 285.148 1197.53 285.509 1197.21 286.19C1196.23 286.801 1195.38 287.585 1194.49 288.306C1193.76 288.9 1192.9 289.36 1192.32 290.159C1191.93 290.683 1191.31 290.956 1190.71 291.175C1190.47 291.267 1190.23 291.32 1190.07 291.528C1189.9 291.753 1189.8 292.071 1189.58 292.211C1189.33 292.364 1189.2 292.556 1189.03 292.761C1188.54 293.339 1187.99 293.897 1187.14 293.917C1187.08 293.919 1187 293.937 1186.94 293.977C1186.57 294.264 1186.17 294.526 1185.85 294.861C1185.47 295.249 1184.95 295.537 1184.79 296.115C1184.78 296.178 1184.7 296.227 1184.64 296.275C1184.17 296.676 1183.7 297.082 1183.21 297.471C1182.73 297.861 1182.37 298.359 1181.82 298.708C1181.31 299.027 1180.84 299.44 1180.34 299.79C1180.04 299.974 1179.58 300.092 1179.47 300.355C1179.13 301.153 1178.09 301.175 1177.8 301.981C1177.03 302.179 1176.68 302.957 1176.02 303.314C1175.84 303.413 1175.58 303.479 1175.49 303.637C1175.03 304.487 1174 304.753 1173.52 305.584C1172.85 305.735 1172.53 306.273 1172.1 306.742C1171.79 307.094 1171.29 307.287 1170.88 307.55C1170.86 308.161 1170.21 308.209 1169.94 308.6Z" fill="#726C65"/>
<path fill-rule="evenodd" clip-rule="evenodd" d="M1242.47 266.126C1242.83 266.046 1243.19 265.966 1243.72 265.849C1243.52 266.08 1243.45 266.158 1243.36 266.261C1243.49 266.307 1243.62 266.35 1243.75 266.394C1243.85 266.752 1243.98 267.174 1243.56 267.364C1243.35 267.461 1243.02 267.294 1242.71 267.369C1242.85 267.437 1242.99 267.505 1243.14 267.581C1242.68 268.143 1242.06 268.235 1241.38 268.136C1241.35 268.39 1241.33 268.568 1241.31 268.819C1240.82 268.4 1240.44 268.919 1239.9 268.878C1240.02 269.113 1240.09 269.264 1240.17 269.414C1240 269.529 1239.8 269.699 1239.58 269.789C1239.26 269.918 1239.03 270.48 1238.57 270.033C1238.55 270.012 1238.46 270.037 1238.42 270.068C1238.33 270.138 1238.27 270.257 1238.17 270.298C1237.82 270.446 1237.4 270.495 1237.12 270.725C1236.87 270.929 1236.81 271.343 1236.61 271.626C1236.49 271.79 1236.28 271.907 1236.09 271.992C1235.89 272.084 1235.13 272.458 1235.03 272.704C1234.92 272.972 1234.74 272.861 1234.59 272.908C1234.39 272.968 1234.17 273.02 1234.01 273.141C1233.89 273.234 1233.85 273.429 1233.77 273.568C1233.58 273.399 1233.4 273.233 1233.07 272.944C1233.12 273.388 1232.7 273.454 1232.89 273.885C1233 274.142 1232.3 274.531 1231.87 274.36C1231.57 274.242 1231.6 274.497 1231.46 274.535C1231.69 275.218 1231.08 275.263 1230.72 275.488C1230.55 275.6 1230 275.968 1229.93 276.064C1229.86 276.146 1229.77 276.213 1229.7 276.28C1229.61 276.205 1229.53 276.119 1229.44 276.073C1229.38 276.047 1229.3 276.084 1229.18 276.098C1229.25 276.247 1229.31 276.385 1229.37 276.512C1229.33 276.591 1229.32 276.682 1229.27 276.713C1228.89 276.961 1228.47 277.163 1228.11 277.443C1227.25 278.114 1226.42 278.823 1225.58 279.511C1224.53 280.366 1223.46 281.189 1222.48 282.138C1222.03 282.582 1221.75 282.903 1221.61 283.556C1221.17 283.331 1220.68 283.341 1220.3 282.952C1219.97 282.609 1219.65 283.017 1219.27 283.159C1219.09 282.349 1219.78 282.204 1220.1 281.826C1219.99 281.719 1219.88 281.613 1219.79 281.515C1219.56 281.676 1219.34 281.835 1219.07 282.034C1219.02 281.837 1218.94 281.71 1218.98 281.639C1219.38 280.836 1220.05 280.259 1220.72 279.684C1220.91 279.522 1221.14 279.409 1221.33 279.241C1222.79 277.896 1224.41 276.761 1226.02 275.592C1227.52 274.501 1229.1 273.54 1230.59 272.448C1231.03 272.133 1231.62 272.068 1231.93 271.579C1233.38 271.088 1234.36 269.784 1235.86 269.365C1236.06 269.677 1235.82 269.71 1235.54 269.793C1235.38 269.842 1235.44 270.09 1235.18 270.227C1234.09 270.802 1233.07 271.503 1232.03 272.164C1231.96 272.208 1231.92 272.299 1231.73 272.542C1232.05 272.428 1232.17 272.365 1232.29 272.348C1232.74 272.289 1232.93 271.818 1233.41 271.739C1233.79 271.677 1234.15 271.339 1234.47 271.059C1235.14 270.462 1235.99 270.174 1236.74 269.72C1237.25 269.413 1237.68 268.988 1238.28 268.806C1238.52 268.736 1238.66 268.383 1238.85 268.159C1239.24 267.934 1239.63 267.721 1240.01 267.478C1240.35 267.255 1240.77 267.223 1241.07 266.831C1241.37 266.445 1242.05 266.476 1242.47 266.126Z" fill="#726C65"/>
<path fill-rule="evenodd" clip-rule="evenodd" d="M1195.47 296.626C1195.83 296.387 1196.35 296.22 1196.49 295.89C1196.69 295.425 1197.07 295.291 1197.4 295.049C1197.74 294.797 1198.12 294.602 1198.47 294.364C1198.82 294.123 1199.2 293.897 1199.5 293.597C1200.15 292.953 1200.88 292.428 1201.64 291.931C1201.82 291.817 1202.03 291.761 1202.2 291.652C1202.38 291.544 1202.61 291.438 1202.69 291.271C1203.06 290.443 1203.85 290.133 1204.55 289.716C1204.95 289.476 1205.21 289.599 1205.64 290.046C1205.49 290.597 1204.8 290.749 1204.68 291.344C1204.66 291.436 1204.3 291.457 1204.09 291.509C1203.78 291.589 1203.99 292.165 1203.57 292.098C1203.2 292.039 1203.2 292.325 1203.06 292.507C1203.02 292.563 1202.76 292.454 1202.56 292.411C1202.44 292.645 1202.29 292.943 1202.14 293.238H1201.76C1201.5 293.554 1201.3 294.016 1201.04 294.06C1200.64 294.126 1200.74 294.778 1200.25 294.602C1200.19 294.581 1200.05 294.671 1200 294.743C1199.89 294.881 1199.84 295.146 1199.72 295.177C1199.26 295.295 1199.09 295.815 1198.68 295.934C1197.9 296.159 1197.39 296.785 1196.69 297.123C1196.55 297.191 1196.4 297.401 1196.39 297.551C1196.37 298.018 1196.13 298.114 1195.72 298.245C1195.41 298.345 1195.11 298.743 1194.98 299.077C1194.8 299.522 1194.23 299.099 1194.1 299.584C1194.04 299.826 1193.91 300.2 1193.54 299.8C1193.44 299.907 1193.23 300.017 1193.24 300.119C1193.26 300.661 1192.81 300.376 1192.6 300.51C1192.44 300.656 1192.96 300.768 1192.6 301.003C1192.05 301.357 1191.61 301.892 1191.06 302.233C1190.86 302.358 1190.76 302.434 1190.68 302.644C1190.64 302.768 1190.45 302.956 1190.37 302.936C1189.72 302.769 1189.43 303.252 1189.05 303.597C1189.03 303.61 1188.89 303.484 1188.78 303.401C1188.61 303.646 1188.84 304.183 1188.27 304.177C1188.19 304.176 1188.09 304.312 1188.04 304.407C1187.56 305.316 1187.57 305.324 1186.77 305.892C1186.62 305.995 1186.7 306.615 1186.26 306.126C1186.26 306.119 1186.01 306.253 1185.99 306.344C1185.85 307.114 1185.16 307.424 1184.69 307.923C1184.08 307.833 1183.91 308.416 1183.53 308.675C1183.28 308.846 1183 308.905 1183.01 309.36C1183.01 309.678 1182.59 309.824 1182.18 309.678C1182.33 309.433 1182.48 309.193 1182.68 308.884C1182.51 308.897 1182.43 308.88 1182.41 308.909C1182.26 309.061 1182.09 309.153 1181.95 308.95C1181.9 308.881 1181.98 308.632 1182.06 308.585C1182.62 308.284 1182.86 307.744 1183.16 307.245C1183.61 307.279 1183.61 307.279 1183.77 307.632C1183.8 307.649 1183.85 307.68 1183.85 307.68C1184.06 307.371 1184.69 307.48 1184.61 306.785C1184.36 306.896 1184.23 307.102 1183.93 307.346C1184 307.07 1184 306.893 1184.09 306.783C1184.22 306.612 1184.4 306.472 1184.58 306.344C1184.92 306.097 1185.19 305.762 1185.29 305.377C1185.37 305.058 1185.45 304.858 1185.78 304.744C1185.95 304.685 1186.07 304.458 1186.21 304.308C1186.73 304.421 1186.86 303.754 1187.33 303.755C1187.3 303.157 1187.89 303.097 1188.21 302.934C1188.64 302.711 1188.71 302.231 1189.15 302.023C1189.66 301.784 1190.09 301.377 1190.52 301.003C1191.33 300.305 1192.1 299.577 1192.9 298.869C1193 298.778 1193.15 298.745 1193.26 298.656C1193.53 298.418 1193.79 298.148 1194.08 297.919C1194.31 297.734 1194.52 297.469 1194.72 297.348C1195.05 297.15 1195.3 296.947 1195.47 296.626Z" fill="#726C65"/>
<path fill-rule="evenodd" clip-rule="evenodd" d="M1179.88 310.408C1180.31 310.51 1180.44 310.12 1180.7 309.936C1180.92 309.782 1181 309.374 1181.49 309.585C1181.28 309.702 1181.1 309.801 1180.77 309.982C1181.16 310.21 1181.35 310.318 1181.51 310.414C1181.19 310.915 1180.54 311.09 1180.9 311.953C1180.6 311.685 1180.53 311.612 1180.4 311.5C1180.38 312.292 1179.96 312.706 1179.16 312.734C1179.26 312.834 1179.31 312.887 1179.43 313.006C1178.87 313.565 1178.29 314.107 1177.76 314.695C1177.24 315.261 1176.55 315.672 1176.22 316.414C1176.17 316.532 1175.83 316.523 1175.59 316.582C1175.67 316.675 1175.72 316.75 1175.79 316.827C1175.64 317.181 1175.24 317.326 1175.1 317.749C1174.93 318.232 1174.67 318.171 1174.19 317.733C1174.1 317.648 1173.84 317.75 1173.58 317.772C1173.61 317.68 1173.61 317.501 1173.7 317.397C1173.87 317.199 1174.09 317.042 1174.01 316.734C1174.29 316.423 1174.87 316.316 1174.71 315.701C1174.7 315.683 1174.75 315.63 1174.78 315.626C1175.49 315.525 1175.65 314.784 1176.15 314.423C1176.73 314.014 1177.11 313.345 1177.6 312.813C1178.35 312 1179.12 311.209 1179.88 310.408Z" fill="#726C65"/>
<path fill-rule="evenodd" clip-rule="evenodd" d="M1195.47 296.626C1195.3 296.947 1195.05 297.15 1194.72 297.348C1194.52 297.469 1194.31 297.734 1194.08 297.919C1193.79 298.148 1193.53 298.418 1193.26 298.656C1193.15 298.745 1193 298.778 1192.9 298.869C1192.1 299.577 1191.33 300.305 1190.52 301.003C1190.09 301.377 1189.66 301.784 1189.15 302.023C1188.71 302.231 1188.64 302.711 1188.21 302.934C1187.89 303.097 1187.3 303.157 1187.33 303.755C1186.86 303.754 1186.73 304.421 1186.21 304.308C1186.21 303.64 1186.77 303.288 1187.19 303.049C1187.9 302.643 1188.35 301.972 1189.04 301.542C1189.84 301.042 1190.47 300.278 1191.2 299.664C1192.4 298.662 1193.61 297.681 1194.84 296.718C1194.98 296.603 1195.26 296.653 1195.47 296.626Z" fill="#726C65"/>
<path fill-rule="evenodd" clip-rule="evenodd" d="M1179.88 310.408C1179.12 311.209 1178.35 312 1177.6 312.813C1177.11 313.345 1176.73 314.014 1176.15 314.423C1175.65 314.784 1175.49 315.525 1174.78 315.626C1174.75 315.63 1174.7 315.683 1174.71 315.701C1174.87 316.316 1174.29 316.423 1174.01 316.734C1173.73 316.949 1173.46 317.164 1173.15 317.405C1173.13 317.273 1173.07 317.122 1173.12 317.074C1174.41 315.711 1175.39 314.069 1176.88 312.894C1177.14 312.686 1176.98 312.237 1177.46 312.177C1177.68 312.15 1177.83 311.69 1178.05 311.468C1178.27 311.239 1178.56 311.076 1178.8 310.855C1179.02 310.65 1179.2 310.4 1179.41 310.184C1179.64 309.949 1179.88 309.722 1180.12 309.507C1180.38 309.279 1180.66 309.071 1181.05 308.76C1180.9 309.599 1180.11 309.811 1179.88 310.408Z" fill="#726C65"/>
<path fill-rule="evenodd" clip-rule="evenodd" d="M1169.94 308.6C1170.21 308.209 1170.86 308.161 1170.88 307.55C1171.29 307.287 1171.79 307.094 1172.1 306.742C1172.53 306.273 1172.85 305.735 1173.52 305.584C1174 304.753 1175.03 304.487 1175.49 303.637C1175.58 303.479 1175.84 303.413 1176.02 303.314C1176.68 302.957 1177.03 302.179 1177.81 301.981C1178.09 301.175 1179.13 301.153 1179.47 300.355C1179.58 300.092 1180.04 299.974 1180.34 299.79C1180.28 299.954 1180.28 300.177 1180.17 300.275C1179.74 300.656 1179.43 301.157 1178.85 301.415C1178.33 301.649 1178.07 302.227 1177.53 302.538C1176.82 302.949 1176.25 303.611 1175.62 304.167C1174.94 304.773 1174.29 305.423 1173.56 305.979C1172.5 306.802 1171.47 307.661 1170.49 308.6H1169.94Z" fill="#726C65"/>
<path fill-rule="evenodd" clip-rule="evenodd" d="M1242.47 266.126C1242.05 266.476 1241.37 266.445 1241.07 266.831C1240.77 267.223 1240.35 267.255 1240.01 267.478C1239.63 267.721 1239.24 267.934 1238.85 268.159C1238.2 268.261 1237.77 268.78 1237.2 269.034C1236.88 269.174 1236.6 269.389 1236.16 269.662C1236.2 269.357 1236.17 269.152 1236.26 269.078C1236.55 268.823 1236.86 268.581 1237.2 268.391C1238.56 267.625 1239.94 266.881 1241.31 266.125C1241.61 265.956 1241.9 265.748 1242.21 265.602C1242.42 265.506 1242.66 265.487 1242.98 265.41C1242.75 265.733 1242.61 265.93 1242.47 266.126Z" fill="#726C65"/>
</g>
<g opacity="0.3">
<path fill-rule="evenodd" clip-rule="evenodd" d="M310.943 316.6C310.311 317.099 309.758 317.651 309.284 318.323C308.942 318.809 308.46 319.226 307.911 319.575C307.307 319.958 306.854 320.582 306.228 320.982C305.842 321.229 305.576 321.831 304.976 321.365C304.706 321.517 304.437 321.669 304.099 321.861C303.89 321.608 303.686 321.364 303.489 321.115C303.448 321.062 303.417 320.931 303.408 320.933C302.731 321.126 302.357 320.319 301.684 320.426C301.318 320.484 300.76 320.083 300.801 319.782C300.883 319.173 300.477 318.911 300.131 318.554C299.997 317.796 300.2 317.096 300.542 316.402C300.88 315.717 301.098 314.97 301.465 314.303C302.21 312.949 303.013 311.629 303.803 310.3C304.617 308.929 305.488 307.598 306.412 306.296C307.255 305.106 308.068 303.895 308.91 302.703C309.423 301.977 309.924 301.242 310.424 300.507C310.446 300.475 310.406 300.403 310.369 300.232C310.113 300.44 309.916 300.721 309.68 300.758C309.37 300.809 309.113 300.795 309.077 301.182C308.546 301.005 308.468 301.833 307.952 301.689C307.806 302.014 307.488 302.233 307.219 302.319C306.903 302.422 306.63 302.42 306.519 302.813C306.488 302.924 306.187 303.07 306.074 303.027C305.58 302.842 305.589 303.483 305.258 303.49C304.856 303.498 304.643 303.669 304.611 304.068C304.096 304.168 303.803 304.615 303.38 304.863C303.015 305.076 302.595 305.316 302.401 305.659C302.277 305.879 302.178 305.958 301.978 306.025C301.329 306.245 300.9 306.799 300.314 307.133C299.724 307.469 299.232 307.978 298.691 308.404C298.012 308.94 297.329 309.472 296.643 310.001C296.231 310.318 295.778 310.161 295.42 309.965C295.147 309.816 294.984 309.562 294.633 309.803C294.586 309.835 294.358 309.605 294.142 309.442C294.345 309.301 294.522 309.178 294.699 309.055C294.67 309.005 294.641 308.955 294.611 308.905C294.437 308.97 294.263 309.034 294.063 309.107C294.047 309.042 293.978 308.924 294.007 308.843C294.078 308.648 294.159 308.435 294.3 308.29C295.086 307.48 295.854 306.646 296.698 305.898C298.118 304.64 299.565 303.409 301.049 302.226C302.064 301.417 303.1 300.63 304.134 299.846C305.064 299.141 306.036 298.467 306.985 297.785C308.202 296.91 309.443 296.081 310.701 295.272C311.5 294.758 312.32 294.277 313.132 293.782C313.669 293.455 314.266 293.576 314.844 293.553C315.247 293.771 315.463 294.182 316.021 294.288C316.657 294.409 317.835 296.127 317.927 296.834C317.996 297.358 317.71 297.858 317.55 298.362C317.271 299.244 316.878 300.061 316.273 300.77C316.208 300.847 316.123 300.978 316.148 301.049C316.356 301.633 315.662 301.835 315.631 302.31C315.035 302.658 314.76 303.279 314.366 303.799C314.298 303.888 314.138 303.96 314.139 304.039C314.147 305.081 313.315 305.665 312.848 306.445C312.703 306.689 312.5 306.902 312.382 307.156C312.301 307.331 312.32 307.552 312.294 307.752C312.457 307.772 312.559 307.816 312.595 307.784C313.372 307.108 314.106 306.375 314.922 305.751C315.985 304.939 316.91 303.964 318.055 303.246C318.602 302.902 319.012 302.36 319.555 301.966C320.556 301.239 321.41 300.305 322.43 299.61C324.183 298.417 325.648 296.847 327.516 295.815C328.002 295.042 328.911 294.759 329.502 294.102C329.661 293.925 329.917 293.836 330.118 293.694C330.412 293.488 330.701 293.276 330.984 293.056C332.124 292.17 333.258 291.277 334.399 290.394C334.881 290.022 335.39 289.682 335.865 289.301C337.206 288.226 338.626 287.258 340.015 286.249C340.738 285.723 341.371 285.08 342.223 284.745C342.817 283.876 343.788 283.473 344.584 282.855C345.547 282.109 346.538 281.399 347.521 280.679C348.791 279.749 350.063 278.823 351.339 277.9C352.149 277.315 352.963 276.736 353.78 276.16C354.771 275.463 355.785 274.8 356.763 274.082C358.251 272.99 359.808 271.993 361.34 270.964C363.253 269.679 365.165 268.392 367.09 267.124C368.151 266.426 369.233 265.758 370.313 265.091C371.601 264.296 372.883 263.49 374.195 262.737C375.141 262.195 376.116 261.708 377.013 261.075C377.232 260.921 377.653 261.052 378.112 261.052C377.991 261.24 377.938 261.382 377.837 261.469C377.534 261.733 377.212 261.976 376.841 262.272C377.646 262.647 378.17 261.553 378.838 261.956C378.63 262.164 378.405 262.389 378.18 262.613C378.223 262.68 378.264 262.747 378.307 262.814C378.546 262.744 378.784 262.675 379.101 262.583C379.155 262.999 379.208 263.405 379.28 263.964C378.998 264.189 378.631 264.682 378.171 264.795C377.612 264.933 377.438 265.621 376.797 265.564C376.63 265.549 376.742 266.13 376.328 265.99C375.884 265.838 376.141 266.557 375.743 266.444C375.372 266.339 375.349 266.832 375.257 266.829C374.679 266.81 374.521 267.378 374.106 267.576C373.663 267.788 373.242 268.066 372.857 268.372C372.513 268.644 372.179 268.874 371.732 268.942C371.574 268.966 371.324 269.128 371.315 269.242C371.283 269.626 371.046 269.568 370.792 269.628C370.61 269.672 370.496 269.983 370.31 270.04C370.094 270.107 369.848 270.046 369.91 270.397C369.139 270.44 368.948 271.514 368.092 271.424C368.009 271.415 367.876 271.504 367.829 271.585C367.287 272.524 366.278 272.879 365.469 273.483C364.29 274.363 363.113 275.246 361.929 276.117C360.979 276.816 360.032 277.522 359.057 278.185C358.538 278.537 358.162 279.168 357.404 279.103C357.351 279.098 357.26 279.176 357.239 279.235C356.825 280.404 355.477 280.351 354.761 281.127C354.642 281.257 354.437 281.318 354.341 281.459C353.493 282.715 352.077 283.292 350.999 284.278C350.208 285.001 349.283 285.577 348.43 286.235C347.371 287.05 346.328 287.885 345.272 288.704C345.166 288.786 345.02 288.82 344.889 288.866C343.818 289.245 343.069 290.101 342.155 290.713C341.953 290.848 341.763 291.075 341.683 291.3C341.499 291.814 341.021 292.071 340.633 292.153C340.219 292.24 339.987 292.448 339.713 292.684C339.173 293.148 338.532 293.509 338.211 294.19C337.232 294.801 336.376 295.585 335.489 296.306C334.759 296.9 333.895 297.36 333.315 298.159C332.934 298.683 332.306 298.956 331.714 299.175C331.467 299.267 331.231 299.32 331.071 299.528C330.898 299.753 330.796 300.071 330.575 300.211C330.333 300.364 330.2 300.556 330.026 300.761C329.536 301.339 328.994 301.897 328.144 301.917C328.076 301.919 327.996 301.937 327.944 301.977C327.572 302.264 327.172 302.526 326.847 302.861C326.468 303.249 325.955 303.537 325.795 304.115C325.777 304.178 325.696 304.227 325.639 304.275C325.166 304.676 324.697 305.082 324.214 305.471C323.731 305.861 323.367 306.359 322.816 306.708C322.312 307.027 321.839 307.44 321.336 307.79C321.038 307.974 320.585 308.092 320.472 308.355C320.131 309.153 319.092 309.175 318.805 309.981C318.027 310.179 317.682 310.957 317.022 311.314C316.838 311.413 316.579 311.479 316.492 311.637C316.026 312.487 314.996 312.753 314.524 313.584C313.855 313.735 313.525 314.273 313.104 314.742C312.787 315.094 312.295 315.287 311.88 315.55C311.859 316.161 311.209 316.209 310.943 316.6Z" fill="#726C65"/>
<path fill-rule="evenodd" clip-rule="evenodd" d="M383.466 274.126C383.828 274.046 384.19 273.966 384.719 273.849C384.516 274.08 384.448 274.158 384.357 274.261C384.493 274.307 384.621 274.35 384.754 274.394C384.846 274.752 384.976 275.174 384.563 275.364C384.351 275.461 384.018 275.294 383.708 275.369C383.847 275.437 383.987 275.505 384.144 275.581C383.679 276.143 383.057 276.235 382.376 276.136C382.35 276.39 382.332 276.568 382.307 276.819C381.817 276.4 381.443 276.919 380.899 276.878C381.018 277.113 381.095 277.264 381.172 277.414C380.996 277.529 380.805 277.699 380.581 277.789C380.262 277.918 380.034 278.48 379.57 278.033C379.548 278.012 379.455 278.037 379.417 278.068C379.329 278.138 379.269 278.257 379.173 278.298C378.82 278.446 378.396 278.495 378.116 278.725C377.869 278.929 377.807 279.343 377.608 279.626C377.493 279.79 377.281 279.907 377.09 279.992C376.886 280.084 376.132 280.458 376.03 280.704C375.918 280.972 375.743 280.861 375.588 280.908C375.389 280.968 375.171 281.02 375.012 281.141C374.89 281.234 374.847 281.429 374.774 281.568C374.583 281.399 374.396 281.233 374.069 280.944C374.116 281.388 373.696 281.454 373.888 281.885C374.003 282.142 373.296 282.531 372.868 282.36C372.574 282.242 372.597 282.497 372.459 282.535C372.691 283.218 372.081 283.263 371.724 283.488C371.547 283.6 371.003 283.968 370.926 284.064C370.859 284.146 370.772 284.213 370.701 284.28C370.609 284.205 370.532 284.119 370.436 284.073C370.381 284.047 370.295 284.084 370.177 284.098C370.247 284.247 370.31 284.385 370.369 284.512C370.334 284.591 370.323 284.682 370.273 284.713C369.888 284.961 369.47 285.163 369.111 285.443C368.252 286.114 367.423 286.823 366.578 287.511C365.528 288.366 364.455 289.189 363.483 290.138C363.028 290.582 362.747 290.903 362.607 291.556C362.172 291.331 361.679 291.341 361.302 290.952C360.969 290.609 360.646 291.017 360.271 291.159C360.088 290.349 360.777 290.204 361.097 289.826C360.99 289.719 360.884 289.613 360.786 289.515C360.563 289.676 360.341 289.835 360.065 290.034C360.018 289.837 359.941 289.71 359.977 289.639C360.385 288.836 361.054 288.259 361.721 287.684C361.91 287.522 362.142 287.409 362.325 287.241C363.791 285.896 365.413 284.761 367.018 283.592C368.517 282.501 370.099 281.54 371.593 280.448C372.025 280.133 372.615 280.068 372.929 279.579C374.381 279.088 375.361 277.784 376.859 277.365C377.064 277.677 376.817 277.71 376.54 277.793C376.376 277.842 376.439 278.09 376.18 278.227C375.092 278.802 374.07 279.503 373.028 280.164C372.958 280.208 372.919 280.299 372.73 280.542C373.053 280.428 373.171 280.365 373.294 280.348C373.738 280.289 373.927 279.818 374.407 279.739C374.79 279.677 375.153 279.339 375.468 279.059C376.142 278.462 376.989 278.174 377.742 277.72C378.251 277.413 378.683 276.988 379.284 276.806C379.517 276.736 379.664 276.383 379.851 276.159C380.238 275.934 380.633 275.721 381.008 275.478C381.353 275.255 381.766 275.223 382.073 274.831C382.375 274.445 383.049 274.476 383.466 274.126Z" fill="#726C65"/>
<path fill-rule="evenodd" clip-rule="evenodd" d="M336.473 304.626C336.825 304.387 337.346 304.22 337.49 303.89C337.692 303.425 338.072 303.291 338.399 303.049C338.739 302.797 339.119 302.602 339.469 302.364C339.824 302.123 340.202 301.897 340.503 301.597C341.151 300.953 341.884 300.428 342.642 299.931C342.815 299.817 343.025 299.761 343.203 299.652C343.38 299.544 343.615 299.438 343.689 299.271C344.059 298.443 344.854 298.133 345.547 297.716C345.947 297.476 346.212 297.599 346.642 298.046C346.492 298.597 345.802 298.749 345.677 299.344C345.658 299.436 345.295 299.457 345.091 299.509C344.779 299.589 344.994 300.165 344.569 300.098C344.195 300.039 344.204 300.325 344.062 300.507C344.018 300.563 343.762 300.454 343.558 300.411C343.44 300.645 343.289 300.943 343.141 301.238H342.764C342.502 301.554 342.304 302.016 342.038 302.06C341.637 302.126 341.737 302.778 341.247 302.602C341.186 302.581 341.053 302.671 340.997 302.743C340.89 302.881 340.842 303.146 340.724 303.177C340.259 303.295 340.088 303.815 339.681 303.934C338.904 304.159 338.386 304.785 337.687 305.123C337.547 305.191 337.397 305.401 337.392 305.551C337.372 306.018 337.127 306.114 336.718 306.245C336.407 306.345 336.109 306.743 335.975 307.077C335.796 307.522 335.225 307.099 335.104 307.584C335.044 307.826 334.908 308.2 334.542 307.8C334.435 307.907 334.234 308.017 334.238 308.119C334.26 308.661 333.814 308.376 333.603 308.51C333.439 308.656 333.959 308.768 333.596 309.003C333.047 309.357 332.615 309.892 332.061 310.233C331.86 310.358 331.756 310.434 331.682 310.644C331.638 310.768 331.45 310.956 331.372 310.936C330.721 310.769 330.427 311.252 330.049 311.597C330.035 311.61 329.893 311.484 329.784 311.401C329.61 311.646 329.837 312.183 329.272 312.177C329.193 312.176 329.087 312.312 329.037 312.407C328.562 313.316 328.57 313.324 327.766 313.892C327.621 313.995 327.697 314.615 327.264 314.126C327.259 314.119 327.012 314.253 326.994 314.344C326.847 315.114 326.156 315.424 325.691 315.923C325.083 315.833 324.914 316.416 324.534 316.675C324.284 316.846 324.004 316.905 324.009 317.36C324.012 317.678 323.592 317.824 323.177 317.678C323.331 317.433 323.483 317.193 323.677 316.884C323.508 316.897 323.434 316.88 323.407 316.909C323.26 317.061 323.09 317.153 322.951 316.95C322.904 316.881 322.978 316.632 323.063 316.585C323.615 316.284 323.861 315.744 324.161 315.245C324.61 315.279 324.61 315.279 324.773 315.632C324.799 315.649 324.849 315.68 324.849 315.68C325.058 315.371 325.693 315.48 325.608 314.785C325.362 314.896 325.231 315.102 324.932 315.346C325.004 315.07 325.004 314.893 325.089 314.783C325.222 314.612 325.402 314.472 325.58 314.344C325.924 314.097 326.186 313.762 326.285 313.377C326.368 313.058 326.446 312.858 326.78 312.744C326.953 312.685 327.068 312.458 327.21 312.308C327.73 312.421 327.863 311.754 328.328 311.755C328.302 311.157 328.89 311.097 329.206 310.934C329.637 310.711 329.712 310.231 330.15 310.023C330.656 309.784 331.091 309.377 331.523 309.003C332.326 308.305 333.103 307.577 333.897 306.869C333.999 306.778 334.151 306.745 334.255 306.656C334.535 306.418 334.789 306.148 335.076 305.919C335.306 305.734 335.522 305.469 335.723 305.348C336.05 305.15 336.297 304.947 336.473 304.626Z" fill="#726C65"/>
<path fill-rule="evenodd" clip-rule="evenodd" d="M320.884 318.408C321.307 318.51 321.443 318.12 321.701 317.936C321.917 317.782 322.001 317.374 322.494 317.585C322.281 317.702 322.102 317.801 321.773 317.982C322.163 318.21 322.346 318.318 322.51 318.414C322.187 318.915 321.54 319.09 321.897 319.953C321.603 319.685 321.525 319.612 321.403 319.5C321.375 320.292 320.961 320.706 320.16 320.734C320.26 320.834 320.313 320.887 320.432 321.006C319.873 321.565 319.289 322.107 318.755 322.695C318.24 323.261 317.553 323.672 317.219 324.414C317.166 324.532 316.833 324.523 316.592 324.582C316.666 324.675 316.725 324.75 316.787 324.827C316.638 325.181 316.242 325.326 316.097 325.749C315.933 326.232 315.674 326.171 315.19 325.733C315.098 325.648 314.836 325.75 314.581 325.772C314.608 325.68 314.611 325.501 314.701 325.397C314.872 325.199 315.089 325.042 315.01 324.734C315.29 324.423 315.873 324.316 315.707 323.701C315.702 323.683 315.753 323.63 315.783 323.626C316.491 323.525 316.646 322.784 317.153 322.423C317.725 322.014 318.108 321.345 318.598 320.813C319.349 320 320.121 319.209 320.884 318.408Z" fill="#726C65"/>
<path fill-rule="evenodd" clip-rule="evenodd" d="M336.472 304.626C336.297 304.947 336.05 305.15 335.723 305.348C335.522 305.469 335.306 305.734 335.076 305.919C334.789 306.148 334.535 306.418 334.255 306.656C334.151 306.745 333.999 306.778 333.897 306.869C333.103 307.577 332.326 308.305 331.523 309.003C331.091 309.377 330.656 309.784 330.15 310.023C329.712 310.231 329.637 310.711 329.206 310.934C328.89 311.097 328.302 311.157 328.328 311.755C327.863 311.754 327.73 312.421 327.21 312.308C327.209 311.64 327.769 311.288 328.189 311.049C328.9 310.643 329.348 309.972 330.036 309.542C330.836 309.042 331.467 308.278 332.201 307.664C333.397 306.662 334.611 305.681 335.838 304.718C335.983 304.603 336.258 304.653 336.472 304.626Z" fill="#726C65"/>
<path fill-rule="evenodd" clip-rule="evenodd" d="M320.884 318.408C320.121 319.209 319.348 320 318.598 320.813C318.107 321.345 317.725 322.014 317.153 322.423C316.646 322.784 316.491 323.525 315.782 323.626C315.753 323.63 315.702 323.683 315.707 323.701C315.872 324.316 315.29 324.423 315.01 324.734C314.734 324.949 314.459 325.164 314.149 325.405C314.135 325.273 314.073 325.122 314.119 325.074C315.409 323.711 316.394 322.069 317.878 320.894C318.141 320.686 317.978 320.237 318.465 320.177C318.683 320.15 318.826 319.69 319.046 319.468C319.272 319.239 319.564 319.076 319.801 318.855C320.021 318.65 320.198 318.4 320.409 318.184C320.637 317.949 320.875 317.722 321.123 317.507C321.385 317.279 321.663 317.071 322.052 316.76C321.901 317.599 321.115 317.811 320.884 318.408Z" fill="#726C65"/>
<path fill-rule="evenodd" clip-rule="evenodd" d="M310.943 316.6C311.209 316.209 311.859 316.161 311.88 315.55C312.295 315.287 312.788 315.094 313.104 314.742C313.525 314.273 313.855 313.735 314.524 313.584C314.996 312.753 316.026 312.487 316.492 311.637C316.579 311.479 316.838 311.413 317.022 311.314C317.683 310.957 318.027 310.179 318.805 309.981C319.092 309.175 320.131 309.153 320.472 308.355C320.585 308.092 321.038 307.974 321.336 307.79C321.284 307.954 321.282 308.177 321.17 308.275C320.736 308.656 320.427 309.157 319.854 309.415C319.335 309.649 319.068 310.227 318.53 310.538C317.817 310.949 317.248 311.611 316.62 312.167C315.935 312.773 315.285 313.423 314.564 313.979C313.497 314.802 312.467 315.661 311.485 316.6H310.943Z" fill="#726C65"/>
<path fill-rule="evenodd" clip-rule="evenodd" d="M383.466 274.126C383.049 274.476 382.375 274.445 382.073 274.831C381.766 275.223 381.353 275.255 381.008 275.478C380.633 275.721 380.238 275.934 379.851 276.159C379.2 276.261 378.769 276.78 378.196 277.034C377.882 277.174 377.602 277.389 377.156 277.662C377.203 277.357 377.174 277.152 377.258 277.078C377.55 276.823 377.864 276.581 378.202 276.391C379.564 275.625 380.938 274.881 382.306 274.125C382.611 273.956 382.897 273.748 383.211 273.602C383.417 273.506 383.659 273.487 383.984 273.41C383.75 273.733 383.608 273.93 383.466 274.126Z" fill="#726C65"/>
</g>
</svg>
