<svg width="1600" height="797" viewBox="0 0 1600 797" fill="none" xmlns="http://www.w3.org/2000/svg">
<rect width="1600" height="797" fill="#1E1C1A"/>
<g opacity="0.3">
<path fill-rule="evenodd" clip-rule="evenodd" d="M1292.94 113.6C1292.31 114.099 1291.76 114.651 1291.28 115.323C1290.94 115.809 1290.46 116.226 1289.91 116.575C1289.31 116.958 1288.85 117.582 1288.23 117.982C1287.84 118.229 1287.58 118.831 1286.98 118.365C1286.71 118.517 1286.44 118.669 1286.1 118.861C1285.89 118.608 1285.69 118.364 1285.49 118.115C1285.45 118.062 1285.42 117.931 1285.41 117.933C1284.73 118.126 1284.36 117.319 1283.68 117.426C1283.32 117.484 1282.76 117.083 1282.8 116.782C1282.88 116.173 1282.48 115.911 1282.13 115.554C1282 114.796 1282.2 114.096 1282.54 113.402C1282.88 112.717 1283.1 111.97 1283.47 111.303C1284.21 109.949 1285.01 108.629 1285.8 107.3C1286.62 105.929 1287.49 104.598 1288.41 103.296C1289.26 102.106 1290.07 100.895 1290.91 99.7032C1291.42 98.9771 1291.92 98.2419 1292.42 97.5067C1292.45 97.4752 1292.41 97.4031 1292.37 97.2325C1292.11 97.4396 1291.92 97.7208 1291.68 97.7585C1291.37 97.8086 1291.11 97.7949 1291.08 98.1822C1290.55 98.0053 1290.47 98.8325 1289.95 98.6892C1289.81 99.0139 1289.49 99.2326 1289.22 99.3192C1288.9 99.4215 1288.63 99.4198 1288.52 99.8125C1288.49 99.9235 1288.19 100.07 1288.07 100.027C1287.58 99.8423 1287.59 100.483 1287.26 100.49C1286.86 100.498 1286.64 100.669 1286.61 101.068C1286.1 101.168 1285.8 101.615 1285.38 101.863C1285.01 102.076 1284.6 102.316 1284.4 102.659C1284.28 102.879 1284.18 102.958 1283.98 103.025C1283.33 103.245 1282.9 103.799 1282.31 104.133C1281.72 104.469 1281.23 104.978 1280.69 105.404C1280.01 105.94 1279.33 106.472 1278.64 107.001C1278.23 107.318 1277.78 107.161 1277.42 106.965C1277.15 106.816 1276.98 106.562 1276.63 106.803C1276.59 106.835 1276.36 106.605 1276.14 106.442C1276.34 106.301 1276.52 106.178 1276.7 106.055C1276.67 106.005 1276.64 105.955 1276.61 105.905C1276.44 105.97 1276.26 106.034 1276.06 106.107C1276.05 106.042 1275.98 105.924 1276.01 105.843C1276.08 105.648 1276.16 105.435 1276.3 105.29C1277.09 104.48 1277.85 103.646 1278.7 102.898C1280.12 101.64 1281.57 100.409 1283.05 99.2264C1284.06 98.4171 1285.1 97.6301 1286.13 96.8464C1287.06 96.141 1288.04 95.4667 1288.98 94.7845C1290.2 93.9097 1291.44 93.0809 1292.7 92.2724C1293.5 91.7584 1294.32 91.2767 1295.13 90.7821C1295.67 90.4553 1296.27 90.5762 1296.84 90.5526C1297.25 90.7709 1297.46 91.1818 1298.02 91.2878C1298.66 91.4092 1299.83 93.1273 1299.93 93.8343C1300 94.3579 1299.71 94.8578 1299.55 95.3615C1299.27 96.2438 1298.88 97.0614 1298.27 97.7701C1298.21 97.8467 1298.12 97.9784 1298.15 98.0488C1298.36 98.6329 1297.66 98.8346 1297.63 99.3101C1297.03 99.6576 1296.76 100.279 1296.37 100.799C1296.3 100.888 1296.14 100.96 1296.14 101.039C1296.15 102.081 1295.31 102.665 1294.85 103.445C1294.7 103.689 1294.5 103.902 1294.38 104.156C1294.3 104.331 1294.32 104.552 1294.29 104.752C1294.46 104.772 1294.56 104.816 1294.6 104.784C1295.37 104.108 1296.11 103.375 1296.92 102.751C1297.98 101.939 1298.91 100.964 1300.05 100.246C1300.6 99.9024 1301.01 99.3602 1301.56 98.9659C1302.56 98.2394 1303.41 97.3045 1304.43 96.6099C1306.18 95.417 1307.65 93.8472 1309.52 92.815C1310 92.0421 1310.91 91.7588 1311.5 91.1019C1311.66 90.9246 1311.92 90.8364 1312.12 90.6943C1312.41 90.488 1312.7 90.2759 1312.98 90.056C1314.12 89.1704 1315.26 88.2774 1316.4 87.3943C1316.88 87.022 1317.39 86.6823 1317.86 86.3013C1319.21 85.2256 1320.63 84.2584 1322.02 83.2486C1322.74 82.7234 1323.37 82.0801 1324.22 81.7446C1324.82 80.8761 1325.79 80.473 1326.58 79.8555C1327.55 79.1091 1328.54 78.3987 1329.52 77.6788C1330.79 76.749 1332.06 75.8228 1333.34 74.9004C1334.15 74.3151 1334.96 73.7356 1335.78 73.1603C1336.77 72.4628 1337.78 71.8001 1338.76 71.0819C1340.25 69.9904 1341.81 68.9935 1343.34 67.9642C1345.25 66.6789 1347.17 65.3916 1349.09 64.1241C1350.15 63.4258 1351.23 62.7581 1352.31 62.0908C1353.6 61.2959 1354.88 60.4903 1356.2 59.7373C1357.14 59.1947 1358.12 58.7084 1359.01 58.0751C1359.23 57.9206 1359.65 58.0523 1360.11 58.0523C1359.99 58.2404 1359.94 58.382 1359.84 58.4694C1359.53 58.7329 1359.21 58.9756 1358.84 59.2722C1359.65 59.647 1360.17 58.5531 1360.84 58.9561C1360.63 59.1645 1360.41 59.389 1360.18 59.6135C1360.22 59.6801 1360.26 59.7468 1360.31 59.8135C1360.55 59.7443 1360.78 59.6752 1361.1 59.5832C1361.16 59.9991 1361.21 60.4054 1361.28 60.9642C1361 61.1887 1360.63 61.6816 1360.17 61.7951C1359.61 61.9326 1359.44 62.6214 1358.8 62.5642C1358.63 62.5493 1358.74 63.13 1358.33 62.9896C1357.88 62.8384 1358.14 63.5575 1357.74 63.4444C1357.37 63.3388 1357.35 63.8321 1357.26 63.8288C1356.68 63.8097 1356.52 64.3784 1356.11 64.5764C1355.66 64.7877 1355.24 65.066 1354.86 65.3717C1354.51 65.6442 1354.18 65.8737 1353.73 65.9425C1353.57 65.9665 1353.32 66.1276 1353.31 66.2423C1353.28 66.6259 1353.05 66.5679 1352.79 66.6284C1352.61 66.6719 1352.5 66.9825 1352.31 67.0401C1352.09 67.1068 1351.85 67.0463 1351.91 67.3971C1351.14 67.4402 1350.95 68.5142 1350.09 68.4235C1350.01 68.4148 1349.88 68.5043 1349.83 68.5846C1349.29 69.5245 1348.28 69.8794 1347.47 70.4833C1346.29 71.3631 1345.11 72.2458 1343.93 73.1172C1342.98 73.8164 1342.03 74.5218 1341.06 75.1845C1340.54 75.5366 1340.16 76.1678 1339.4 76.1028C1339.35 76.0982 1339.26 76.1761 1339.24 76.2345C1338.82 77.4042 1337.48 77.3512 1336.76 78.1266C1336.64 78.2567 1336.44 78.3184 1336.34 78.4592C1335.49 79.7151 1334.08 80.2925 1333 81.2778C1332.21 82.001 1331.28 82.5772 1330.43 83.2345C1329.37 84.0501 1328.33 84.8851 1327.27 85.7036C1327.17 85.786 1327.02 85.82 1326.89 85.8664C1325.82 86.2449 1325.07 87.1011 1324.15 87.7129C1323.95 87.8479 1323.76 88.0749 1323.68 88.3002C1323.5 88.8138 1323.02 89.0714 1322.63 89.1535C1322.22 89.24 1321.99 89.4484 1321.71 89.684C1321.17 90.148 1320.53 90.5087 1320.21 91.1897C1319.23 91.801 1318.38 92.5851 1317.49 93.3058C1316.76 93.8998 1315.9 94.3596 1315.32 95.159C1314.93 95.6833 1314.31 95.9563 1313.71 96.1754C1313.47 96.2669 1313.23 96.32 1313.07 96.5283C1312.9 96.7528 1312.8 97.0709 1312.58 97.2109C1312.33 97.3642 1312.2 97.5559 1312.03 97.7614C1311.54 98.3388 1310.99 98.8971 1310.14 98.9174C1310.08 98.9191 1310 98.9369 1309.94 98.9767C1309.57 99.2641 1309.17 99.5263 1308.85 99.861C1308.47 100.249 1307.95 100.537 1307.79 101.115C1307.78 101.178 1307.7 101.227 1307.64 101.275C1307.17 101.676 1306.7 102.082 1306.21 102.471C1305.73 102.861 1305.37 103.359 1304.82 103.708C1304.31 104.027 1303.84 104.44 1303.34 104.79C1303.04 104.974 1302.58 105.092 1302.47 105.355C1302.13 106.153 1301.09 106.175 1300.8 106.981C1300.03 107.179 1299.68 107.957 1299.02 108.314C1298.84 108.413 1298.58 108.479 1298.49 108.637C1298.03 109.487 1297 109.753 1296.52 110.584C1295.85 110.735 1295.53 111.273 1295.1 111.742C1294.79 112.094 1294.29 112.287 1293.88 112.55C1293.86 113.161 1293.21 113.209 1292.94 113.6Z" fill="#726C65"/>
<path fill-rule="evenodd" clip-rule="evenodd" d="M1365.47 71.126C1365.83 71.046 1366.19 70.9661 1366.72 70.8489C1366.52 71.0796 1366.45 71.1579 1366.36 71.261C1366.49 71.3066 1366.62 71.3496 1366.75 71.394C1366.85 71.7522 1366.98 72.1735 1366.56 72.364C1366.35 72.4614 1366.02 72.2936 1365.71 72.3694C1365.85 72.4373 1365.99 72.5053 1366.14 72.5811C1365.68 73.1431 1365.06 73.2351 1364.38 73.1357C1364.35 73.39 1364.33 73.5681 1364.31 73.8191C1363.82 73.3999 1363.44 73.9185 1362.9 73.8783C1363.02 74.1128 1363.09 74.2636 1363.17 74.4143C1363 74.5295 1362.8 74.6993 1362.58 74.7892C1362.26 74.9176 1362.03 75.4801 1361.57 75.0331C1361.55 75.0124 1361.46 75.0369 1361.42 75.0675C1361.33 75.1375 1361.27 75.2572 1361.17 75.2978C1360.82 75.4461 1360.4 75.4954 1360.12 75.7253C1359.87 75.9291 1359.81 76.3433 1359.61 76.6262C1359.49 76.7902 1359.28 76.9066 1359.09 76.9923C1358.89 77.0838 1358.13 77.4583 1358.03 77.7043C1357.92 77.9719 1357.74 77.8605 1357.59 77.9077C1357.39 77.9682 1357.17 78.0195 1357.01 78.1413C1356.89 78.2337 1356.85 78.4292 1356.77 78.5683C1356.58 78.3989 1356.4 78.2333 1356.07 77.9441C1356.12 78.3878 1355.7 78.4536 1355.89 78.8852C1356 79.1416 1355.3 79.5314 1354.87 79.3599C1354.57 79.2423 1354.6 79.4974 1354.46 79.5347C1354.69 80.2177 1354.08 80.2633 1353.72 80.4882C1353.55 80.5996 1353 80.9682 1352.93 81.0635C1352.86 81.1459 1352.77 81.2126 1352.7 81.2797C1352.61 81.2051 1352.53 81.1194 1352.44 81.073C1352.38 81.0465 1352.3 81.0838 1352.18 81.0979C1352.25 81.2474 1352.31 81.3845 1352.37 81.5121C1352.33 81.5908 1352.32 81.6815 1352.27 81.7134C1351.89 81.9607 1351.47 82.1628 1351.11 82.4428C1350.25 83.1138 1349.42 83.8225 1348.58 84.5113C1347.53 85.3658 1346.46 86.1892 1345.48 87.1378C1345.03 87.5818 1344.75 87.9028 1344.61 88.5564C1344.17 88.3307 1343.68 88.341 1343.3 87.9521C1342.97 87.6087 1342.65 88.0167 1342.27 88.1588C1342.09 87.349 1342.78 87.2036 1343.1 86.8259C1342.99 86.7194 1342.88 86.613 1342.79 86.5148C1342.56 86.6759 1342.34 86.8354 1342.07 87.0338C1342.02 86.837 1341.94 86.7099 1341.98 86.6391C1342.38 85.8359 1343.05 85.2589 1343.72 84.684C1343.91 84.5217 1344.14 84.4086 1344.33 84.2408C1345.79 82.8963 1347.41 81.7606 1349.02 80.5917C1350.52 79.5007 1352.1 78.5398 1353.59 77.4483C1354.03 77.1327 1354.62 77.0677 1354.93 76.5794C1356.38 76.0877 1357.36 74.7838 1358.86 74.3646C1359.06 74.6769 1358.82 74.7101 1358.54 74.7925C1358.38 74.8418 1358.44 75.0903 1358.18 75.2266C1357.09 75.8023 1356.07 76.5031 1355.03 77.1642C1354.96 77.2081 1354.92 77.2988 1354.73 77.5415C1355.05 77.4285 1355.17 77.3647 1355.29 77.3477C1355.74 77.2889 1355.93 76.8175 1356.41 76.7392C1356.79 76.6767 1357.15 76.3387 1357.47 76.0591C1358.14 75.4618 1358.99 75.1736 1359.74 74.7196C1360.25 74.4131 1360.68 73.9877 1361.28 73.8063C1361.52 73.7359 1361.66 73.3834 1361.85 73.1593C1362.24 72.9336 1362.63 72.7211 1363.01 72.4775C1363.35 72.2547 1363.77 72.2228 1364.07 71.8305C1364.37 71.4453 1365.05 71.4764 1365.47 71.126Z" fill="#726C65"/>
<path fill-rule="evenodd" clip-rule="evenodd" d="M1318.47 101.626C1318.83 101.387 1319.35 101.22 1319.49 100.89C1319.69 100.425 1320.07 100.291 1320.4 100.049C1320.74 99.7972 1321.12 99.6021 1321.47 99.3644C1321.82 99.1229 1322.2 98.8967 1322.5 98.5973C1323.15 97.9528 1323.88 97.428 1324.64 96.9314C1324.82 96.8175 1325.03 96.7607 1325.2 96.6522C1325.38 96.5437 1325.61 96.4381 1325.69 96.2711C1326.06 95.4427 1326.85 95.1333 1327.55 94.7162C1327.95 94.476 1328.21 94.5994 1328.64 95.0463C1328.49 95.5972 1327.8 95.7492 1327.68 96.3444C1327.66 96.4364 1327.3 96.4575 1327.09 96.5093C1326.78 96.5892 1326.99 97.165 1326.57 97.0983C1326.2 97.0395 1326.2 97.3253 1326.06 97.5067C1326.02 97.563 1325.76 97.4537 1325.56 97.411C1325.44 97.645 1325.29 97.9433 1325.14 98.2386H1324.76C1324.5 98.5538 1324.3 99.0165 1324.04 99.0604C1323.64 99.1262 1323.74 99.7782 1323.25 99.6025C1323.19 99.581 1323.05 99.6713 1323 99.7434C1322.89 99.8813 1322.84 100.146 1322.72 100.177C1322.26 100.296 1322.09 100.815 1321.68 100.934C1320.9 101.16 1320.39 101.785 1319.69 102.123C1319.55 102.191 1319.4 102.401 1319.39 102.551C1319.37 103.018 1319.13 103.114 1318.72 103.245C1318.41 103.345 1318.11 103.743 1317.98 104.077C1317.8 104.522 1317.23 104.099 1317.1 104.584C1317.04 104.826 1316.91 105.2 1316.54 104.8C1316.44 104.907 1316.23 105.017 1316.24 105.119C1316.26 105.661 1315.81 105.376 1315.6 105.51C1315.44 105.656 1315.96 105.768 1315.6 106.003C1315.05 106.357 1314.61 106.892 1314.06 107.233C1313.86 107.358 1313.76 107.434 1313.68 107.644C1313.64 107.769 1313.45 107.956 1313.37 107.936C1312.72 107.769 1312.43 108.252 1312.05 108.597C1312.03 108.61 1311.89 108.484 1311.78 108.401C1311.61 108.646 1311.84 109.183 1311.27 109.177C1311.19 109.176 1311.09 109.312 1311.04 109.408C1310.56 110.316 1310.57 110.324 1309.77 110.892C1309.62 110.995 1309.7 111.615 1309.26 111.126C1309.26 111.119 1309.01 111.253 1308.99 111.344C1308.85 112.114 1308.16 112.424 1307.69 112.923C1307.08 112.833 1306.91 113.416 1306.53 113.675C1306.28 113.846 1306 113.905 1306.01 114.36C1306.01 114.678 1305.59 114.824 1305.18 114.678C1305.33 114.433 1305.48 114.193 1305.68 113.884C1305.51 113.897 1305.43 113.88 1305.41 113.909C1305.26 114.061 1305.09 114.153 1304.95 113.95C1304.9 113.881 1304.98 113.632 1305.06 113.586C1305.62 113.284 1305.86 112.744 1306.16 112.245C1306.61 112.28 1306.61 112.28 1306.77 112.632C1306.8 112.649 1306.85 112.681 1306.85 112.68C1307.06 112.372 1307.69 112.48 1307.61 111.785C1307.36 111.896 1307.23 112.102 1306.93 112.346C1307 112.07 1307 111.894 1307.09 111.783C1307.22 111.612 1307.4 111.472 1307.58 111.344C1307.92 111.097 1308.19 110.762 1308.29 110.377C1308.37 110.058 1308.45 109.858 1308.78 109.744C1308.95 109.685 1309.07 109.458 1309.21 109.308C1309.73 109.421 1309.86 108.754 1310.33 108.755C1310.3 108.157 1310.89 108.097 1311.21 107.934C1311.64 107.711 1311.71 107.231 1312.15 107.023C1312.66 106.784 1313.09 106.377 1313.52 106.003C1314.33 105.305 1315.1 104.577 1315.9 103.869C1316 103.778 1316.15 103.745 1316.26 103.656C1316.53 103.418 1316.79 103.148 1317.08 102.919C1317.31 102.734 1317.52 102.469 1317.72 102.348C1318.05 102.15 1318.3 101.947 1318.47 101.626Z" fill="#726C65"/>
<path fill-rule="evenodd" clip-rule="evenodd" d="M1302.88 115.408C1303.31 115.51 1303.44 115.12 1303.7 114.936C1303.92 114.782 1304 114.374 1304.49 114.585C1304.28 114.702 1304.1 114.801 1303.77 114.982C1304.16 115.21 1304.35 115.318 1304.51 115.414C1304.19 115.915 1303.54 116.09 1303.9 116.953C1303.6 116.684 1303.53 116.612 1303.4 116.5C1303.38 117.292 1302.96 117.706 1302.16 117.734C1302.26 117.834 1302.31 117.887 1302.43 118.006C1301.87 118.565 1301.29 119.107 1300.76 119.694C1300.24 120.261 1299.55 120.672 1299.22 121.414C1299.17 121.532 1298.83 121.523 1298.59 121.582C1298.67 121.675 1298.72 121.75 1298.79 121.827C1298.64 122.181 1298.24 122.326 1298.1 122.749C1297.93 123.232 1297.67 123.171 1297.19 122.733C1297.1 122.648 1296.84 122.75 1296.58 122.772C1296.61 122.68 1296.61 122.501 1296.7 122.397C1296.87 122.199 1297.09 122.042 1297.01 121.734C1297.29 121.422 1297.87 121.316 1297.71 120.701C1297.7 120.683 1297.75 120.63 1297.78 120.626C1298.49 120.525 1298.65 119.784 1299.15 119.423C1299.73 119.014 1300.11 118.345 1300.6 117.813C1301.35 117 1302.12 116.209 1302.88 115.408Z" fill="#726C65"/>
<path fill-rule="evenodd" clip-rule="evenodd" d="M1318.47 101.626C1318.3 101.947 1318.05 102.15 1317.72 102.348C1317.52 102.469 1317.31 102.734 1317.08 102.919C1316.79 103.148 1316.53 103.418 1316.26 103.656C1316.15 103.745 1316 103.778 1315.9 103.869C1315.1 104.577 1314.33 105.305 1313.52 106.003C1313.09 106.377 1312.66 106.784 1312.15 107.023C1311.71 107.231 1311.64 107.711 1311.21 107.934C1310.89 108.097 1310.3 108.157 1310.33 108.755C1309.86 108.754 1309.73 109.421 1309.21 109.308C1309.21 108.639 1309.77 108.288 1310.19 108.049C1310.9 107.643 1311.35 106.972 1312.04 106.542C1312.84 106.042 1313.47 105.278 1314.2 104.664C1315.4 103.662 1316.61 102.681 1317.84 101.718C1317.98 101.603 1318.26 101.653 1318.47 101.626Z" fill="#726C65"/>
<path fill-rule="evenodd" clip-rule="evenodd" d="M1302.88 115.408C1302.12 116.209 1301.35 117 1300.6 117.813C1300.11 118.345 1299.73 119.014 1299.15 119.423C1298.65 119.784 1298.49 120.524 1297.78 120.626C1297.75 120.63 1297.7 120.683 1297.71 120.701C1297.87 121.316 1297.29 121.422 1297.01 121.734C1296.73 121.949 1296.46 122.163 1296.15 122.405C1296.13 122.273 1296.07 122.122 1296.12 122.074C1297.41 120.71 1298.39 119.069 1299.88 117.894C1300.14 117.686 1299.98 117.237 1300.46 117.177C1300.68 117.15 1300.83 116.69 1301.05 116.468C1301.27 116.239 1301.56 116.076 1301.8 115.855C1302.02 115.65 1302.2 115.4 1302.41 115.184C1302.64 114.949 1302.88 114.722 1303.12 114.507C1303.38 114.279 1303.66 114.071 1304.05 113.76C1303.9 114.599 1303.12 114.811 1302.88 115.408Z" fill="#726C65"/>
<path fill-rule="evenodd" clip-rule="evenodd" d="M1292.94 113.6C1293.21 113.209 1293.86 113.161 1293.88 112.55C1294.29 112.287 1294.79 112.094 1295.1 111.742C1295.53 111.273 1295.85 110.735 1296.52 110.584C1297 109.753 1298.03 109.487 1298.49 108.637C1298.58 108.479 1298.84 108.413 1299.02 108.314C1299.68 107.957 1300.03 107.179 1300.8 106.981C1301.09 106.175 1302.13 106.153 1302.47 105.355C1302.58 105.092 1303.04 104.974 1303.34 104.79C1303.28 104.954 1303.28 105.177 1303.17 105.275C1302.74 105.656 1302.43 106.157 1301.85 106.415C1301.33 106.649 1301.07 107.227 1300.53 107.538C1299.82 107.949 1299.25 108.611 1298.62 109.167C1297.94 109.773 1297.29 110.423 1296.56 110.979C1295.5 111.802 1294.47 112.661 1293.49 113.6H1292.94Z" fill="#726C65"/>
<path fill-rule="evenodd" clip-rule="evenodd" d="M1365.47 71.1261C1365.05 71.4765 1364.37 71.4454 1364.07 71.8306C1363.77 72.2229 1363.35 72.2548 1363.01 72.4776C1362.63 72.7212 1362.24 72.9336 1361.85 73.1594C1361.2 73.2609 1360.77 73.7799 1360.2 74.0342C1359.88 74.1738 1359.6 74.3891 1359.16 74.6625C1359.2 74.3568 1359.17 74.1522 1359.26 74.0785C1359.55 73.8229 1359.86 73.581 1360.2 73.3909C1361.56 72.6246 1362.94 71.8807 1364.31 71.1248C1364.61 70.9562 1364.9 70.7483 1365.21 70.6017C1365.42 70.5056 1365.66 70.487 1365.98 70.4099C1365.75 70.733 1365.61 70.9297 1365.47 71.1261Z" fill="#726C65"/>
</g>
<g opacity="0.3">
<path fill-rule="evenodd" clip-rule="evenodd" d="M1210.26 96.6607C1209.87 96.9626 1209.54 97.2966 1209.25 97.7036C1209.05 97.9975 1208.75 98.2502 1208.42 98.4616C1208.06 98.6933 1207.78 99.0712 1207.4 99.3135C1207.17 99.4629 1207.01 99.8273 1206.64 99.5449C1206.48 99.6372 1206.32 99.7295 1206.11 99.8456C1205.99 99.6921 1205.86 99.5447 1205.74 99.3939C1205.72 99.3619 1205.7 99.2821 1205.7 99.2836C1205.29 99.4002 1205.06 98.912 1204.65 98.9764C1204.43 99.0115 1204.09 98.7688 1204.12 98.5865C1204.17 98.2181 1203.92 98.0594 1203.71 97.8433C1203.63 97.3846 1203.75 96.9608 1203.96 96.5408C1204.17 96.1261 1204.3 95.6734 1204.52 95.2697C1204.97 94.4502 1205.46 93.6508 1205.93 92.8466C1206.43 92.0166 1206.95 91.2104 1207.51 90.4221C1208.02 89.7021 1208.52 88.9687 1209.03 88.2472C1209.34 87.8076 1209.64 87.3625 1209.94 86.9175C1209.96 86.8984 1209.93 86.8548 1209.91 86.7514C1209.75 86.8768 1209.64 87.0471 1209.49 87.0699C1209.3 87.1003 1209.15 87.092 1209.13 87.3264C1208.81 87.2194 1208.76 87.7201 1208.45 87.6334C1208.36 87.83 1208.17 87.9624 1208 88.0148C1207.81 88.0767 1207.65 88.0757 1207.58 88.3134C1207.56 88.3806 1207.38 88.4691 1207.31 88.4436C1207.01 88.3315 1207.02 88.7192 1206.82 88.7234C1206.57 88.7284 1206.44 88.8322 1206.42 89.0735C1206.11 89.1342 1205.93 89.4045 1205.68 89.5547C1205.46 89.6838 1205.2 89.8293 1205.09 90.0366C1205.01 90.1698 1204.95 90.2177 1204.83 90.2583C1204.44 90.3915 1204.18 90.727 1203.82 90.9288C1203.47 91.1322 1203.17 91.4404 1202.84 91.6984C1202.43 92.0229 1202.02 92.3451 1201.6 92.6651C1201.35 92.8572 1201.08 92.7621 1200.86 92.6435C1200.69 92.5535 1200.6 92.3993 1200.38 92.5457C1200.35 92.565 1200.22 92.4259 1200.09 92.3268C1200.21 92.2413 1200.32 92.1671 1200.42 92.0926C1200.41 92.0625 1200.39 92.0322 1200.37 92.0021C1200.26 92.041 1200.16 92.0798 1200.04 92.1242C1200.03 92.0846 1199.99 92.0136 1200 91.9642C1200.05 91.8461 1200.1 91.7172 1200.18 91.6297C1200.66 91.139 1201.12 90.6342 1201.63 90.1816C1202.49 89.4198 1203.37 88.6745 1204.27 87.9586C1204.88 87.4686 1205.51 86.9922 1206.14 86.5177C1206.7 86.0907 1207.29 85.6825 1207.86 85.2695C1208.6 84.7399 1209.35 84.2381 1210.11 83.7486C1210.59 83.4374 1211.09 83.1458 1211.58 82.8464C1211.91 82.6485 1212.27 82.7218 1212.62 82.7075C1212.86 82.8396 1212.99 83.0884 1213.33 83.1526C1213.72 83.226 1214.43 84.2662 1214.49 84.6942C1214.53 85.0112 1214.35 85.3138 1214.26 85.6188C1214.09 86.1529 1213.85 86.6479 1213.48 87.0769C1213.44 87.1233 1213.39 87.2031 1213.41 87.2457C1213.53 87.5993 1213.11 87.7214 1213.1 88.0093C1212.73 88.2196 1212.57 88.5958 1212.33 88.9105C1212.29 88.9644 1212.19 89.008 1212.19 89.0562C1212.2 89.6866 1211.69 90.0401 1211.41 90.5126C1211.32 90.66 1211.2 90.7892 1211.13 90.9431C1211.08 91.049 1211.09 91.1826 1211.08 91.3037C1211.17 91.3158 1211.24 91.3426 1211.26 91.3233C1211.73 90.9138 1212.17 90.4702 1212.67 90.0926C1213.31 89.6011 1213.87 89.0103 1214.56 88.5757C1214.89 88.3678 1215.14 88.0396 1215.47 87.8009C1216.08 87.361 1216.59 86.7951 1217.21 86.3746C1218.27 85.6524 1219.16 84.702 1220.29 84.0771C1220.58 83.6092 1221.14 83.4377 1221.49 83.04C1221.59 82.9326 1221.74 82.8792 1221.87 82.7932C1222.04 82.6683 1222.22 82.54 1222.39 82.4068C1223.08 81.8707 1223.77 81.33 1224.46 80.7954C1224.75 80.57 1225.06 80.3644 1225.35 80.1337C1226.16 79.4825 1227.02 78.8969 1227.86 78.2856C1228.3 77.9676 1228.68 77.5782 1229.19 77.3751C1229.55 76.8492 1230.14 76.6053 1230.62 76.2314C1231.21 75.7795 1231.81 75.3495 1232.4 74.9136C1233.17 74.3507 1233.94 73.79 1234.71 73.2315C1235.2 72.8772 1235.7 72.5264 1236.19 72.1781C1236.79 71.7558 1237.4 71.3546 1238 70.9198C1238.9 70.259 1239.84 69.6555 1240.77 69.0323C1241.93 68.2542 1243.08 67.4749 1244.25 66.7076C1244.89 66.2848 1245.55 65.8806 1246.2 65.4766C1246.98 64.9954 1247.76 64.5076 1248.55 64.0518C1249.12 63.7233 1249.71 63.4289 1250.26 63.0455C1250.39 62.9519 1250.64 63.0317 1250.92 63.0317C1250.85 63.1455 1250.82 63.2313 1250.76 63.2842C1250.57 63.4437 1250.38 63.5906 1250.15 63.7702C1250.64 63.9971 1250.96 63.3348 1251.36 63.5788C1251.24 63.705 1251.1 63.8409 1250.96 63.9768C1250.99 64.0172 1251.01 64.0575 1251.04 64.0979C1251.18 64.056 1251.33 64.0142 1251.52 63.9585C1251.55 64.2102 1251.59 64.4562 1251.63 64.7945C1251.46 64.9304 1251.24 65.2288 1250.96 65.2975C1250.62 65.3808 1250.51 65.7978 1250.13 65.7632C1250.02 65.7542 1250.09 66.1057 1249.84 66.0207C1249.57 65.9292 1249.73 66.3645 1249.49 66.2961C1249.26 66.2321 1249.25 66.5308 1249.19 66.5288C1248.84 66.5172 1248.75 66.8615 1248.5 66.9814C1248.23 67.1093 1247.97 67.2778 1247.74 67.4628C1247.53 67.6278 1247.33 67.7668 1247.06 67.8084C1246.96 67.8229 1246.81 67.9205 1246.81 67.9899C1246.79 68.2221 1246.64 68.187 1246.49 68.2236C1246.38 68.25 1246.31 68.438 1246.2 68.4729C1246.07 68.5133 1245.92 68.4767 1245.96 68.689C1245.49 68.7151 1245.37 69.3653 1244.86 69.3104C1244.81 69.3052 1244.72 69.3593 1244.7 69.408C1244.37 69.9769 1243.76 70.1918 1243.27 70.5575C1242.55 71.0901 1241.84 71.6244 1241.12 72.152C1240.55 72.5753 1239.98 73.0023 1239.39 73.4036C1239.07 73.6167 1238.84 73.9989 1238.38 73.9595C1238.35 73.9567 1238.3 74.0039 1238.29 74.0392C1238.03 74.7474 1237.22 74.7153 1236.79 75.1847C1236.71 75.2634 1236.59 75.3008 1236.53 75.3861C1236.02 76.1464 1235.16 76.4959 1234.51 77.0925C1234.03 77.5303 1233.47 77.8791 1232.95 78.2771C1232.31 78.7708 1231.68 79.2763 1231.04 79.7718C1230.98 79.8217 1230.89 79.8423 1230.81 79.8704C1230.16 80.0996 1229.71 80.6179 1229.15 80.9883C1229.03 81.07 1228.92 81.2074 1228.87 81.3438C1228.76 81.6548 1228.47 81.8107 1228.23 81.8604C1227.98 81.9128 1227.84 82.0389 1227.67 82.1816C1227.35 82.4625 1226.96 82.6809 1226.77 83.0931C1226.17 83.4632 1225.65 83.9379 1225.12 84.3743C1224.68 84.7338 1224.15 85.0122 1223.8 85.4961C1223.57 85.8136 1223.19 85.9789 1222.83 86.1115C1222.68 86.1669 1222.54 86.199 1222.44 86.3252C1222.34 86.4611 1222.28 86.6537 1222.14 86.7384C1222 86.8312 1221.92 86.9473 1221.81 87.0717C1221.51 87.4212 1221.19 87.7592 1220.67 87.7715C1220.63 87.7725 1220.58 87.7833 1220.55 87.8074C1220.32 87.9814 1220.08 88.1401 1219.89 88.3428C1219.66 88.578 1219.35 88.7517 1219.25 89.1018C1219.24 89.1399 1219.19 89.1695 1219.15 89.1989C1218.87 89.4413 1218.58 89.6876 1218.29 89.923C1218 90.1588 1217.78 90.4607 1217.45 90.6718C1217.14 90.8646 1216.85 91.1149 1216.55 91.3265C1216.37 91.4381 1216.09 91.5096 1216.03 91.6691C1215.82 92.1518 1215.19 92.1656 1215.02 92.6531C1214.55 92.7729 1214.34 93.2443 1213.94 93.4602C1213.83 93.5204 1213.67 93.5603 1213.62 93.6556C1213.33 94.1701 1212.71 94.3316 1212.43 94.8347C1212.02 94.9259 1211.82 95.2517 1211.57 95.5353C1211.37 95.7484 1211.08 95.8653 1210.82 96.0248C1210.81 96.3944 1210.42 96.424 1210.26 96.6607Z" fill="#726C65"/>
<path fill-rule="evenodd" clip-rule="evenodd" d="M1254.16 70.9466C1254.38 70.8982 1254.6 70.8498 1254.92 70.7788C1254.8 70.9185 1254.76 70.9659 1254.7 71.0283C1254.78 71.0559 1254.86 71.082 1254.94 71.1088C1255 71.3257 1255.08 71.5807 1254.83 71.6961C1254.7 71.755 1254.5 71.6535 1254.31 71.6993C1254.39 71.7405 1254.48 71.7816 1254.57 71.8275C1254.29 72.1678 1253.92 72.2234 1253.5 72.1632C1253.49 72.3172 1253.48 72.425 1253.46 72.577C1253.16 72.3232 1252.94 72.6372 1252.61 72.6129C1252.68 72.7548 1252.73 72.8461 1252.77 72.9373C1252.67 73.0071 1252.55 73.1099 1252.42 73.1643C1252.22 73.242 1252.09 73.5825 1251.8 73.312C1251.79 73.2994 1251.73 73.3142 1251.71 73.3328C1251.66 73.3752 1251.62 73.4476 1251.56 73.4722C1251.35 73.562 1251.09 73.5918 1250.92 73.731C1250.77 73.8544 1250.74 74.1051 1250.62 74.2764C1250.55 74.3757 1250.42 74.4462 1250.3 74.4981C1250.18 74.5535 1249.72 74.7802 1249.66 74.9291C1249.59 75.0911 1249.49 75.0237 1249.39 75.0522C1249.27 75.0888 1249.14 75.1199 1249.04 75.1937C1248.97 75.2496 1248.94 75.3679 1248.9 75.4522C1248.78 75.3496 1248.67 75.2493 1248.47 75.0743C1248.5 75.3429 1248.25 75.3827 1248.36 75.644C1248.43 75.7992 1248.01 76.0352 1247.75 75.9314C1247.57 75.8602 1247.58 76.0146 1247.5 76.0372C1247.64 76.4507 1247.27 76.4783 1247.05 76.6145C1246.95 76.6819 1246.62 76.9051 1246.57 76.9628C1246.53 77.0127 1246.48 77.053 1246.44 77.0937C1246.38 77.0485 1246.33 76.9966 1246.27 76.9685C1246.24 76.9525 1246.19 76.9751 1246.12 76.9836C1246.16 77.0741 1246.2 77.1571 1246.23 77.2343C1246.21 77.282 1246.21 77.3369 1246.18 77.3562C1245.94 77.5059 1245.69 77.6283 1245.47 77.7978C1244.95 78.204 1244.45 78.6331 1243.94 79.0501C1243.3 79.5674 1242.65 80.0659 1242.07 80.6401C1241.79 80.909 1241.62 81.1033 1241.53 81.499C1241.27 81.3623 1240.97 81.3686 1240.74 81.1331C1240.54 80.9253 1240.35 81.1723 1240.12 81.2583C1240.01 80.768 1240.43 80.68 1240.62 80.4513C1240.56 80.3869 1240.49 80.3224 1240.43 80.263C1240.3 80.3605 1240.16 80.4571 1240 80.5772C1239.97 80.4581 1239.92 80.3811 1239.94 80.3382C1240.19 79.852 1240.59 79.5027 1241 79.1547C1241.11 79.0564 1241.25 78.9879 1241.36 78.8863C1242.25 78.0724 1243.23 77.3848 1244.21 76.6772C1245.11 76.0167 1246.07 75.4349 1246.97 74.7741C1247.24 74.5831 1247.59 74.5437 1247.78 74.2481C1248.66 73.9504 1249.26 73.161 1250.16 72.9072C1250.29 73.0963 1250.14 73.1164 1249.97 73.1663C1249.87 73.1961 1249.91 73.3466 1249.75 73.4291C1249.09 73.7776 1248.47 74.2019 1247.84 74.6021C1247.8 74.6287 1247.78 74.6836 1247.66 74.8306C1247.86 74.7621 1247.93 74.7235 1248.01 74.7132C1248.27 74.6776 1248.39 74.3922 1248.68 74.3448C1248.91 74.307 1249.13 74.1024 1249.32 73.9331C1249.73 73.5715 1250.24 73.397 1250.7 73.1221C1251.01 72.9366 1251.27 72.6791 1251.63 72.5692C1251.77 72.5266 1251.86 72.3132 1251.97 72.1775C1252.21 72.0409 1252.45 71.9122 1252.68 71.7648C1252.88 71.6299 1253.13 71.6106 1253.32 71.3731C1253.5 71.1399 1253.91 71.1587 1254.16 70.9466Z" fill="#726C65"/>
<path fill-rule="evenodd" clip-rule="evenodd" d="M1225.71 89.4116C1225.93 89.2667 1226.24 89.1659 1226.33 88.9658C1226.45 88.6844 1226.68 88.6032 1226.88 88.4565C1227.09 88.3043 1227.32 88.1862 1227.53 88.0422C1227.74 87.8961 1227.97 87.7591 1228.15 87.5778C1228.55 87.1877 1228.99 86.8699 1229.45 86.5693C1229.55 86.5003 1229.68 86.466 1229.79 86.4003C1229.89 86.3346 1230.04 86.2706 1230.08 86.1696C1230.31 85.6681 1230.79 85.4807 1231.21 85.2282C1231.45 85.0828 1231.61 85.1575 1231.87 85.4281C1231.78 85.7616 1231.36 85.8536 1231.29 86.214C1231.27 86.2696 1231.05 86.2824 1230.93 86.3138C1230.74 86.3622 1230.87 86.7107 1230.61 86.6703C1230.39 86.6347 1230.39 86.8078 1230.31 86.9176C1230.28 86.9517 1230.13 86.8855 1230 86.8597C1229.93 87.0013 1229.84 87.1819 1229.75 87.3607H1229.52C1229.36 87.5515 1229.24 87.8316 1229.08 87.8582C1228.84 87.8981 1228.9 88.2928 1228.6 88.1864C1228.57 88.1734 1228.49 88.2281 1228.45 88.2717C1228.39 88.3552 1228.36 88.5157 1228.29 88.534C1228.01 88.606 1227.9 88.9207 1227.66 88.9924C1227.18 89.129 1226.87 89.5077 1226.45 89.7125C1226.36 89.7534 1226.27 89.8806 1226.27 89.9713C1226.26 90.2544 1226.11 90.3121 1225.86 90.3916C1225.67 90.452 1225.49 90.6933 1225.41 90.8954C1225.3 91.1649 1224.96 90.9084 1224.88 91.2021C1224.85 91.349 1224.77 91.5749 1224.54 91.3332C1224.48 91.3976 1224.36 91.4646 1224.36 91.5263C1224.37 91.8543 1224.1 91.6818 1223.98 91.7628C1223.88 91.8513 1224.19 91.9192 1223.97 92.0614C1223.64 92.2758 1223.38 92.5993 1223.04 92.8062C1222.92 92.8816 1222.86 92.9275 1222.81 93.0547C1222.79 93.1301 1222.67 93.2435 1222.63 93.2314C1222.23 93.1304 1222.05 93.423 1221.82 93.6319C1221.82 93.6397 1221.73 93.5632 1221.66 93.5133C1221.56 93.6612 1221.7 93.9865 1221.35 93.9827C1221.31 93.9822 1221.24 94.0645 1221.21 94.1224C1220.92 94.6723 1220.93 94.6771 1220.44 95.0214C1220.35 95.0836 1220.4 95.4589 1220.14 95.1625C1220.13 95.1588 1219.99 95.2398 1219.97 95.2947C1219.89 95.7608 1219.47 95.9484 1219.19 96.2506C1218.82 96.1964 1218.72 96.5492 1218.49 96.7062C1218.33 96.8093 1218.16 96.8454 1218.17 97.1205C1218.17 97.3133 1217.91 97.4018 1217.66 97.313C1217.76 97.1648 1217.85 97.0194 1217.97 96.8326C1217.86 96.8404 1217.82 96.8303 1217.8 96.8476C1217.71 96.9397 1217.61 96.9956 1217.53 96.8727C1217.5 96.8308 1217.54 96.6799 1217.59 96.6518C1217.93 96.469 1218.08 96.1425 1218.26 95.8403C1218.53 95.8612 1218.53 95.8612 1218.63 96.0745C1218.65 96.0846 1218.68 96.1039 1218.68 96.1034C1218.8 95.9168 1219.19 95.9825 1219.14 95.5615C1218.99 95.6292 1218.91 95.7536 1218.73 95.9015C1218.77 95.7345 1218.77 95.6274 1218.82 95.5605C1218.9 95.4569 1219.01 95.3724 1219.12 95.2949C1219.33 95.1452 1219.49 94.9424 1219.55 94.7094C1219.6 94.5163 1219.64 94.3952 1219.84 94.326C1219.95 94.2901 1220.02 94.1532 1220.11 94.062C1220.42 94.1307 1220.5 93.7269 1220.78 93.7272C1220.77 93.3654 1221.12 93.3292 1221.31 93.2304C1221.57 93.0955 1221.62 92.8047 1221.89 92.679C1222.19 92.5343 1222.46 92.2876 1222.72 92.0612C1223.2 91.6389 1223.67 91.198 1224.15 90.7692C1224.22 90.7143 1224.31 90.6945 1224.37 90.6406C1224.54 90.4962 1224.69 90.3329 1224.87 90.194C1225.01 90.0822 1225.14 89.9219 1225.26 89.8485C1225.46 89.7288 1225.61 89.606 1225.71 89.4116Z" fill="#726C65"/>
<path fill-rule="evenodd" clip-rule="evenodd" d="M1216.28 97.7548C1216.53 97.8165 1216.61 97.5808 1216.77 97.4692C1216.9 97.3759 1216.95 97.1289 1217.25 97.2566C1217.12 97.3275 1217.01 97.3872 1216.81 97.497C1217.05 97.6352 1217.16 97.7007 1217.26 97.7586C1217.06 98.062 1216.67 98.1678 1216.89 98.6904C1216.71 98.5277 1216.66 98.4838 1216.59 98.4161C1216.57 98.8953 1216.32 99.1463 1215.84 99.1631C1215.9 99.2235 1215.93 99.2556 1216 99.3278C1215.66 99.6663 1215.31 99.9943 1214.99 100.35C1214.67 100.693 1214.26 100.941 1214.06 101.391C1214.02 101.462 1213.82 101.457 1213.68 101.492C1213.72 101.549 1213.76 101.594 1213.8 101.641C1213.71 101.855 1213.47 101.943 1213.38 102.199C1213.28 102.491 1213.12 102.455 1212.83 102.189C1212.77 102.138 1212.61 102.2 1212.46 102.213C1212.48 102.158 1212.48 102.049 1212.53 101.986C1212.64 101.866 1212.77 101.771 1212.72 101.584C1212.89 101.396 1213.24 101.332 1213.14 100.959C1213.14 100.948 1213.17 100.916 1213.19 100.914C1213.62 100.852 1213.71 100.404 1214.02 100.185C1214.36 99.9379 1214.59 99.5327 1214.89 99.2107C1215.35 98.7187 1215.81 98.2395 1216.28 97.7548Z" fill="#726C65"/>
<path fill-rule="evenodd" clip-rule="evenodd" d="M1225.71 89.4114C1225.61 89.6057 1225.46 89.7286 1225.26 89.8482C1225.14 89.9217 1225.01 90.0819 1224.87 90.1937C1224.69 90.3327 1224.54 90.4959 1224.37 90.6403C1224.31 90.6943 1224.22 90.7141 1224.15 90.769C1223.67 91.1978 1223.2 91.6386 1222.72 92.0609C1222.46 92.2873 1222.19 92.5341 1221.89 92.6788C1221.62 92.8044 1221.57 93.0953 1221.31 93.2302C1221.12 93.329 1220.77 93.3651 1220.78 93.7269C1220.5 93.7267 1220.42 94.1304 1220.11 94.0617C1220.11 93.6572 1220.44 93.4443 1220.7 93.2996C1221.13 93.0541 1221.4 92.6479 1221.82 92.3876C1222.3 92.0847 1222.68 91.6221 1223.13 91.2502C1223.85 90.6441 1224.59 90.0501 1225.33 89.4668C1225.42 89.3976 1225.58 89.4274 1225.71 89.4114Z" fill="#726C65"/>
<path fill-rule="evenodd" clip-rule="evenodd" d="M1216.28 97.7548C1215.81 98.2396 1215.35 98.7188 1214.89 99.2108C1214.59 99.5327 1214.36 99.938 1214.02 100.185C1213.71 100.404 1213.62 100.852 1213.19 100.914C1213.17 100.916 1213.14 100.948 1213.14 100.959C1213.24 101.332 1212.89 101.396 1212.72 101.584C1212.55 101.715 1212.39 101.845 1212.2 101.991C1212.19 101.911 1212.15 101.82 1212.18 101.79C1212.96 100.965 1213.56 99.9711 1214.46 99.2599C1214.62 99.134 1214.52 98.8625 1214.81 98.8261C1214.94 98.8098 1215.03 98.5309 1215.16 98.3965C1215.3 98.2579 1215.48 98.1591 1215.62 98.0257C1215.75 97.9015 1215.86 97.7501 1215.99 97.6192C1216.13 97.477 1216.27 97.3393 1216.42 97.2092C1216.58 97.0715 1216.75 96.9454 1216.98 96.7571C1216.89 97.2651 1216.42 97.3935 1216.28 97.7548Z" fill="#726C65"/>
<path fill-rule="evenodd" clip-rule="evenodd" d="M1210.26 96.6608C1210.42 96.4241 1210.81 96.3945 1210.82 96.0249C1211.08 95.8654 1211.37 95.7485 1211.57 95.5354C1211.82 95.2518 1212.02 94.9261 1212.43 94.8348C1212.71 94.3318 1213.33 94.1703 1213.62 93.6557C1213.67 93.5604 1213.83 93.5205 1213.94 93.4604C1214.34 93.2445 1214.55 92.773 1215.02 92.6532C1215.19 92.1657 1215.82 92.1519 1216.03 91.6692C1216.09 91.5097 1216.37 91.4382 1216.55 91.3267C1216.52 91.4265 1216.52 91.5614 1216.45 91.6205C1216.19 91.851 1216 92.1544 1215.65 92.3109C1215.34 92.4526 1215.18 92.8021 1214.85 92.9904C1214.42 93.2397 1214.07 93.6399 1213.69 93.9767C1213.28 94.3435 1212.89 94.737 1212.45 95.074C1211.8 95.5723 1211.18 96.0918 1210.59 96.6608H1210.26Z" fill="#726C65"/>
<path fill-rule="evenodd" clip-rule="evenodd" d="M1254.16 70.9465C1253.91 71.1586 1253.5 71.1398 1253.32 71.373C1253.13 71.6105 1252.88 71.6298 1252.68 71.7647C1252.45 71.9122 1252.21 72.0408 1251.97 72.1775C1251.58 72.2389 1251.32 72.5531 1250.97 72.7071C1250.78 72.7916 1250.61 72.922 1250.34 73.0875C1250.37 72.9024 1250.35 72.7785 1250.4 72.7339C1250.58 72.5792 1250.77 72.4327 1250.98 72.3176C1251.8 71.8537 1252.63 71.4034 1253.46 70.9457C1253.65 70.8437 1253.82 70.7178 1254.01 70.629C1254.13 70.5709 1254.28 70.5596 1254.48 70.5129C1254.34 70.7085 1254.25 70.8276 1254.16 70.9465Z" fill="#726C65"/>
</g>
<path fill-rule="evenodd" clip-rule="evenodd" d="M532.174 110.62C531.75 109.039 531.288 107.465 530.917 105.872C530.68 104.858 530.942 103.853 531.348 102.92C531.605 102.327 532.074 101.871 532.795 101.863C533.745 101.853 533.267 102.531 533.41 103C536.171 112.073 539.989 120.741 543.626 129.48C544.469 131.505 545.069 133.64 545.637 135.763C545.814 136.428 546.235 137.438 545.027 137.823C544 138.151 543.502 137.502 543.074 136.765C540.851 132.94 539.268 128.814 537.495 124.78C535.466 120.162 533.838 115.387 532.174 110.62Z" fill="#D99655"/>
<path fill-rule="evenodd" clip-rule="evenodd" d="M565.262 152.605C565.232 151.555 565.464 150.334 566.331 149.469C570.527 145.284 574.901 141.287 579.518 137.57C580.736 136.59 580.612 137.154 581.478 138.347C583.594 141.262 581.219 142.707 579.915 144.471C577.612 147.587 574.775 150.179 571.568 152.363C570.734 152.93 569.921 153.531 569.113 154.135C566.873 155.806 566.186 155.566 565.262 152.605Z" fill="#D99655"/>
<path fill-rule="evenodd" clip-rule="evenodd" d="M558.005 146.404C555.77 144.224 556.551 141.81 556.966 139.345C557.744 134.717 559.398 130.36 560.808 125.924C561.064 125.119 561.268 123.854 562.203 123.939C563.118 124.022 563.278 125.304 563.527 126.166C563.898 127.441 563.398 128.686 563.087 129.874C561.784 134.859 560.364 139.813 558.968 144.773C558.804 145.358 558.671 145.997 558.005 146.404Z" fill="#D99655"/>
</svg>
